<svg id="a2858e5f-e1f6-4a8b-a45d-02d88457a358" data-name="Calque 1" xmlns="http://www.w3.org/2000/svg" xmlns:xlink="http://www.w3.org/1999/xlink" viewBox="0 0 500 500"><defs><style>.ae3586fa-a3a9-4c70-9c56-33f5c56bdcac{fill:url(#f7b842d5-f907-48a1-9fc8-d09fe36ab9d0);}.afd17a47-5bd4-4b2b-b7ab-6bacca4a91b6{fill:#fff;}</style><linearGradient id="f7b842d5-f907-48a1-9fc8-d09fe36ab9d0" x1="79.35" y1="-45.86" x2="420.86" y2="545.65" gradientUnits="userSpaceOnUse"><stop offset="0" stop-color="#29abe2"/><stop offset="0.35" stop-color="#1791d1"/><stop offset="0.75" stop-color="#067ac2"/><stop offset="1" stop-color="#0071bc"/></linearGradient></defs><rect class="ae3586fa-a3a9-4c70-9c56-33f5c56bdcac" x="0.11" y="-0.11" width="500" height="500"/><path class="afd17a47-5bd4-4b2b-b7ab-6bacca4a91b6" d="M395.33,114.51c-13.34-10.22-29.05-17.08-45-22.21-5.72-1.85-11.53-3.45-17.39-4.82-2.24-.52-5-.66-7.1-1.51l-1.29,9.54h0c4.05-.12,6.61-5.32,3.44-8.29-2.43-2.27-7.63-1.63-10.68-1.69q-11.06-.23-22.12.25c-20.13.82-40.76,2.87-60,9.26l3.74.49c-10.46-5.6-22.23-9.33-33.71-12.13-20.82-5.08-44.61-7.7-65.7-2.79-7.84,1.83-16,3.67-23.31,7.15-5.07,2.42-7.87,7-6.5,12.76s6,9.48,10,13.33l13.57,13.05,27.68,26.62-.76-5.88c-7.36,10.67-13.45,22.37-19.06,34-13.05,27.11-22.94,55.92-28,85.61a251.71,251.71,0,0,0-3.19,61.1l2.4-4.19A100.81,100.81,0,0,0,92.3,340.07c-9.59,9.47-20.34,22.74-22.68,36.4-1.12,6.54-2.08,13.15-2.56,19.77-.12,1.74-.21,3.49-.21,5.24a22.39,22.39,0,0,0,.22,2.51c-.16,2.68-.89,5-.42,7.72,1.09,6.39,8.63,12.4,15,8.82,3.18-1.77,4.68-5.37,6.41-8.37,2.1-3.64,5.06-7.47,9-9.25-.82.37-.7-.09.61-.11s2.68.08,4,.09a107.33,107.33,0,0,0,11.76-.45c8.2-.81,16.14-2.43,19.56-10.78L125,393.8A37.27,37.27,0,0,0,143.55,405c6.13,1.52,12.48,1.57,18.67,2.63,5.37.92,4.35,6.5,7.34,10.12,3.7,4.46,10.53,5.3,14.36.53,2.64-3.29,4.07-10.36,5-14.75a77.55,77.55,0,0,0,.65-28.89C186.94,358.87,178.48,345,167,334l1.25,4.72c5.54-25.71,23-50.09,41.85-67.61a163.05,163.05,0,0,1,36.41-25.18l-7.3-4.19c1.26,14.76-4.35,27.24-10,40.54-2.17,5.08-7.15,16.08,3.26,15.69,3.89-.15,7.78-2.6,11-4.51,4.7-2.78,9.19-5.92,13.62-9.1,8.17-5.88,16.12-12.07,24-18.36a333.2,333.2,0,0,0,43.17-41l-3.43,1.42a325.62,325.62,0,0,1,40.72-1.39q6.69.24,13.38.66c4.06.24,8.59,1.22,12.59.36a71.56,71.56,0,0,0,11.7-3.77c11.91-4.83,23.41-12.46,29.56-24.11,7.2-13.64,5.38-29.19-.63-42.89-6.84-15.61-18.53-29.53-31.85-40-4.85-3.84-11.77,3-6.86,6.86,18.79,14.85,44,45.05,31.26,70.6-5.1,10.27-15.45,17-25.9,20.94-3,1.16-7,3-10.29,3.16-3.92.19-8.3-.75-12.27-1s-8.13-.42-12.19-.55a312.72,312.72,0,0,0-36.73,1.22c-3.5.3-5.17.8-7.51,3.44q-4.35,4.93-8.91,9.67-8.87,9.23-18.5,17.67c-15.33,13.49-31.88,27.07-49.44,37.55a39,39,0,0,1-5.48,2.94,7.18,7.18,0,0,0-1.47.48c-.48.71-.44-.85.08,0,.18.29,1.75.67,2.11,1,.55.52.73,2.28,1.19,2.7s-.74.94,0,.36a6.1,6.1,0,0,0,.55-1.48c.94-2.38,2-4.71,3-7.07,5.82-13.84,11.23-26.74,9.92-42.08a4.93,4.93,0,0,0-7.31-4.19c-36,18.52-65.27,49.55-79.37,87.76a77.91,77.91,0,0,0-3.15,10,6.06,6.06,0,0,0,.66,5.1c1.92,2.87,5.14,5.18,7.36,7.89a64.4,64.4,0,0,1,6.17,9.1c8.55,15.22,9.83,33.88,4.44,50.4-.26.79-.55,1.58-.83,2.37-.06.16-.13.31-.19.47.95-2.56-.72,1.14.11,1.24.47.06-2.46-7.09-3.34-8.27a13.82,13.82,0,0,0-4.68-4c-5.09-2.65-12.22-2.09-17.73-3-7.55-1.2-14-3.88-19.25-9.64-2.71-3-6.83-1-8.11,2.14-1.75,4.26-12.11,3.87-15.78,4-3.85.15-7.91-.44-11.72-.07-5.78.56-11.76,7-14.87,11.56-1,1.47-1.82,3.06-2.69,4.62a18.1,18.1,0,0,1-1.35,2.29c-.79,1,.25.18.74.32-2.25-.65-2-2.26-1.82-4.3,1.08-9.8.77-19.8,2.94-29.57,2.57-11.53,11.4-22.43,19.57-30.6a91.63,91.63,0,0,1,18.62-14.78,4.79,4.79,0,0,0,2.41-4.19c-4.27-57.38,13.28-115.57,42.1-164.86,2.18-3.72,4.4-7.43,6.84-11a4.89,4.89,0,0,0-.76-5.89l-31.73-30.51L124,104.41c-1.7-1.64-3.73-3.32-4.6-5.61-.6-1.57.43-2-.27-1.55,2.79-1.88,7.09-3,10.54-4,24.94-7.36,51.11-6.29,76.18.31a150.76,150.76,0,0,1,25.28,8.89c1.48.69,3.16,1.83,4.8,2,2.84.38,6.39-1.53,9.14-2.27,3.66-1,7.36-1.83,11.08-2.55,15.06-2.92,30.45-4,45.77-4.4,7.44-.17,15.26-.63,22.68.24l-3.43-1.43h0l3.43-8.29h0c-5.75.17-6.24,7.59-1.29,9.54,1.93.76,4.35.88,6.37,1.34q8.56,1.95,16.95,4.61c15.59,4.92,30.78,11.61,43.82,21.6C395.39,126.69,400.23,118.26,395.33,114.51Z"/><ellipse class="afd17a47-5bd4-4b2b-b7ab-6bacca4a91b6" cx="345.27" cy="151.7" rx="19.5" ry="37.37" transform="translate(89.84 429.16) rotate(-71.09)"/><path class="afd17a47-5bd4-4b2b-b7ab-6bacca4a91b6" d="M305.07,138.84c-3.09,13.1,8.9,23.92,19.05,29.87,13.47,7.88,32.13,13.06,47.53,8.26,12-3.73,17.87-14.81,11.7-26.26-7.22-13.4-24.17-21.26-38.35-24.34-13.19-2.87-34.69-3.36-39.93,12.47-2,5.95,7.4,8.5,9.36,2.58,1.71-5.17,8.89-6.47,13.55-6.83,7.77-.59,15.6,1,22.91,3.55s14.38,6.42,19.8,11.89c2.86,2.88,6.71,7.52,5.42,11.95-1.38,4.77-7.9,6.2-12.15,6.71-8.15,1-16.64-.72-24.3-3.43a53.36,53.36,0,0,1-18.87-11c-3.32-3.13-7.53-7.9-6.36-12.87C315.86,135.35,306.5,132.75,305.07,138.84Z"/></svg>