<svg id="efbbe4a0-0d31-4559-8ce4-d552b96605b0" data-name="Calque 1" xmlns="http://www.w3.org/2000/svg" xmlns:xlink="http://www.w3.org/1999/xlink" viewBox="0 0 500 500"><defs><style>.a06d7e45-31bd-403e-8bc2-f5d8eb3bcb05{fill:url(#ba4c537a-47db-4144-b6b1-f055b00f358c);}.b3e02a5b-c429-4155-bea6-a8838ee829c2{fill:#fff;}</style><linearGradient id="ba4c537a-47db-4144-b6b1-f055b00f358c" x1="79.35" y1="-45.86" x2="420.86" y2="545.65" gradientUnits="userSpaceOnUse"><stop offset="0" stop-color="#29abe2"/><stop offset="0.35" stop-color="#1791d1"/><stop offset="0.75" stop-color="#067ac2"/><stop offset="1" stop-color="#0071bc"/></linearGradient></defs><rect class="a06d7e45-31bd-403e-8bc2-f5d8eb3bcb05" x="0.11" y="-0.11" width="500" height="500"/><path class="b3e02a5b-c429-4155-bea6-a8838ee829c2" d="M70.74,270.36a132.64,132.64,0,0,0,44.87,10c8.46.39,17.12-.17,25.18-2.93a65.21,65.21,0,0,0,19.13-10.72C169.1,259.41,176.6,250,182.56,240a96.52,96.52,0,0,1,5.43-9c.25-.34,1.14-1.48.41-.55l1.15-1.46c.9-1.12,1.83-2.22,2.77-3.3q3.6-4.12,7.55-7.91A120.63,120.63,0,0,1,223.35,200a118.94,118.94,0,0,1,34.7-13.47,122.5,122.5,0,0,1,21.85-2.65q6-.18,11.92.15c2.08.12,4.15.28,6.23.48l1.66.18c.08,0,1.17.16.4,0l.25.06A163.06,163.06,0,0,0,331.19,188a84.69,84.69,0,0,0,22.64-2.75c2.54-.72,5.83-1.49,7.83-3.26,1-.92,2-1.88,3.07-2.78a83.54,83.54,0,0,1,15.16-10.39,54.09,54.09,0,0,1,10.23-4.24c3.23-1,6.42-1.15,9.71-1.7.33,0,.65-.12,1-.18-1.29.23-.07,0,.26,0s.88,0,1.33,0a23.87,23.87,0,0,1,7.36,1.17c5.68,1.66,10.41,5.14,15.83,7.38a82.87,82.87,0,0,0,17.16,5.42c2.5.43,5.55,1,8.06.25,1.14-.33,2.24-.85,3.37-1.2.9-.27,1.8-.51,2.72-.69l.58-.1c.94-.16-.52,0,.06,0s1,0,1.48,0c.71,0-.22,0-.23,0s.85.48.2,0c-.23-.17-.36-.12-.63-.62.29.53-.11-.41-.15-.54-.2-.56.08.08,0,.27,0,0,.21-.87,0-.05-.11.36-.21.72-.35,1.07a6.24,6.24,0,0,0-.74,3.87c0,.25.09.5.14.75s.07.4.1.59,0-.55,0,.23a24.61,24.61,0,0,1-.52,8.16,17.82,17.82,0,0,1-15.29,13c.45-.06-.66,0-.85.06-.43,0-.86,0-1.29.05-2,.11-3.17,1.19-4.7,2.4-2.93,2.33-6,4.52-9.09,6.6a145,145,0,0,1-52,21.59c-4.18.84-8.46,1.18-12.56,2.32a67.52,67.52,0,0,0-14,5.53c-5.12,2.78-10.2,6.7-12.61,12.16-1.72,3.89-2.48,8.23-3.88,12.25a111.21,111.21,0,0,1-31.19,46.7c-5.45,4.88-11.73,10-18.73,12.47-.56.2-1.13.38-1.7.53l-1,.25c-.11,0-.95.17-.42.1a11.39,11.39,0,0,1-1.65.07c-.17,0-.93-.08-.24,0a7.51,7.51,0,0,1-.94-.21c-.64-.18-.18-.05,0,0a5,5,0,0,1-.55-.3l-.93-.54c-1.24-.72-2.47-1.47-3.71-2.21-2.17-1.31-4.31-2.74-6.55-3.94-3.24-1.75-6.65-3.19-9.88-5v6.17c11.24-8.46,24.64-18.43,27-33.32a3.67,3.67,0,0,0-1.28-3.75,3.52,3.52,0,0,0-4-.28,63.71,63.71,0,0,1-8.83,5.48,121.37,121.37,0,0,1-25.07,10,143.62,143.62,0,0,1-18.68,4,95.18,95.18,0,0,1-17.58,1.38c-6.11-.27-12.29-1.25-18.35-2a214.62,214.62,0,0,1-28.58-5.2,56.51,56.51,0,0,1-5.54-1.75c-.18-.06-1.14-.44-.54-.2a6,6,0,0,0-1.83-.49l-.58,0a46.7,46.7,0,0,0-7.75.3c-10.52,1.17-20.72,4.84-28.75,11.91-2,1.74-4.35,3.84-5.41,6.27.75-1.74-.15.25-.38.68a37.24,37.24,0,0,1-4.62,6.8,51.51,51.51,0,0,1-10.87,9.6c-3.75,2.47-8.07,5.15-12.47,6.2-7.6,1.81-15.62,3.49-23.45,2.93a8.86,8.86,0,0,1-2-.31,9,9,0,0,1-1.22-.38c.68.27-.18-.13-.4-.27l1.28,4.89c3.49-7.34,7.57-14.93,9.65-22.84a35,35,0,0,0,1-9.5c0-1.77-.07-3.3-1.09-4.8a42.15,42.15,0,0,0-3.39-4.16,56.41,56.41,0,0,0-5.09-5c-4.53-3.92-9.26-7.5-13.49-11.77l.92,3.48c2.1-7,6.18-12.85,13.2-15.46A30,30,0,0,1,58.47,270q.77-.2,1.56-.33c.22,0,1.36-.21.66-.11s.84-.09,1.06-.1c.77-.06,1.55-.09,2.33-.08a26.39,26.39,0,0,1,6.66,1c4.44,1.22,6.33-5.67,1.9-6.89a32,32,0,0,0-20.53,1,27.45,27.45,0,0,0-10.59,7.2,35,35,0,0,0-6.72,12.9,3.57,3.57,0,0,0,.92,3.47c6.92,7,15.38,12.26,21.33,20.18l-.48-1.8A30.36,30.36,0,0,1,55.11,319,189.48,189.48,0,0,1,47,337.53a3.67,3.67,0,0,0,1.28,4.89c4.53,2.84,11,2.18,16.07,1.63a131.57,131.57,0,0,0,15.53-2.67c5.72-1.32,11.26-4.49,16.07-7.79a57.94,57.94,0,0,0,13.57-12.85,35,35,0,0,0,4.62-7.87l-.92,1.58c8.75-10.61,23.28-15.83,36.54-14.75l-1.81-.49c9,3.8,18.93,5.3,28.52,6.76,8.66,1.32,17.36,2.37,26.08,3.21a61.55,61.55,0,0,0,10.77-.23,155.48,155.48,0,0,0,21.59-3.2A136.27,136.27,0,0,0,265.74,295a74.09,74.09,0,0,0,12.59-7.43l-5.24-4c-1.18,7.47-6,13.72-11.29,18.91-1.83,1.82-3.77,3.5-5.76,5.13-.75.61.45-.32-.13.1l-.36.27q-3.09,2.31-6.16,4.64c-2,1.53-2.57,4.75,0,6.17,3.51,1.95,7.3,3.43,10.74,5.49,2.82,1.68,5.62,3.4,8.44,5.08,2.37,1.41,4.58,2.52,7.43,2.55,3.67.05,7.28-1.34,10.54-2.9,8.42-4,15.87-10.4,22.43-16.93a118.77,118.77,0,0,0,15.51-19,121.13,121.13,0,0,0,12.46-25.17c.84-2.33,1.61-4.69,2.32-7.06.59-2,1-4.41,1.86-6a18,18,0,0,1,5.71-6.14,51,51,0,0,1,15.69-7c.75-.21,1.5-.4,2.24-.59.23-.06,1.41-.32.38-.13,4.35-.8,8.72-1.32,13.05-2.28a152.26,152.26,0,0,0,63.22-30.8l-2.53,1a25.55,25.55,0,0,0,22-11.72,27.54,27.54,0,0,0,3-20.46l-.36,2.75c1.65-3.15,3-7.31-.08-10.09-2.42-2.18-6.11-1.72-9-1.07-1.88.42-3.62,1.2-5.45,1.74l-.08,0c.55-.15-.28,0-.49,0a19.66,19.66,0,0,1-2.66-.11,41.42,41.42,0,0,1-5.63-1.19,103.07,103.07,0,0,1-11.49-3.94l-1-.39c-.26-.11-1.08-.45-.37-.15-.4-.17-.82-.33-1.21-.52-1.67-.8-3.19-1.91-4.83-2.78-6.85-3.65-14.85-6.33-22.69-5.06L398,156l-.12,0c.89-.11-.93,0-1.2,0a47.2,47.2,0,0,0-7.83,1.47,64.81,64.81,0,0,0-14.55,6.25A88.59,88.59,0,0,0,357,176.64a3.84,3.84,0,0,0-.46.44c-.14.19-.2,0,.19-.16.85-.25-.12-.06-.23,0a10,10,0,0,0-1,.39,55,55,0,0,1-7.12,2,78.9,78.9,0,0,1-14.78,1.57,141.06,141.06,0,0,1-25.07-1.82,154.47,154.47,0,0,0-18.24-2.22,134.13,134.13,0,0,0-31.11,2.24,125.45,125.45,0,0,0-46.25,19.1,130.05,130.05,0,0,0-26.2,23.13,74.53,74.53,0,0,0-8.8,12.52c-7.34,13.13-17.44,25.48-30.72,32.94-9.55,5.36-20,6.88-30.83,6.45a127.06,127.06,0,0,1-29.44-4.75,125.43,125.43,0,0,1-14.22-5c-1.78-.74-3.93.81-4.4,2.5C67.68,268,69,269.61,70.74,270.36Z"/><circle class="b3e02a5b-c429-4155-bea6-a8838ee829c2" cx="407.95" cy="177.97" r="5.47"/></svg>