<svg id="a7d58674-8278-488d-bc93-f45fb46111bd" data-name="Calque 1" xmlns="http://www.w3.org/2000/svg" xmlns:xlink="http://www.w3.org/1999/xlink" viewBox="0 0 500 500"><defs><style>.b9e19ea9-9ac0-44b9-be83-accc84beaed7{fill:url(#ae3ae7c1-9fc7-4ab8-a4bd-10a7c0b44a58);}.a65f9780-285c-4b38-abf2-e22ac7d99b93{fill:#fff;stroke:#fff;stroke-miterlimit:10;stroke-width:2.38px;}</style><linearGradient id="ae3ae7c1-9fc7-4ab8-a4bd-10a7c0b44a58" x1="79.35" y1="-45.86" x2="420.86" y2="545.65" gradientUnits="userSpaceOnUse"><stop offset="0" stop-color="#29abe2"/><stop offset="0.35" stop-color="#1791d1"/><stop offset="0.75" stop-color="#067ac2"/><stop offset="1" stop-color="#0071bc"/></linearGradient></defs><rect class="b9e19ea9-9ac0-44b9-be83-accc84beaed7" x="0.11" y="-0.11" width="500" height="500"/><path class="a65f9780-285c-4b38-abf2-e22ac7d99b93" d="M286.34,167.61A27.3,27.3,0,0,1,316.43,150a20,20,0,0,1,15.66,26.82,26,26,0,0,1-7.83,11.34,27.82,27.82,0,0,1-4.05,2.86A26.46,26.46,0,0,1,302,194.42a20,20,0,0,1-15.66-26.81Zm16.48,22.46a22.86,22.86,0,0,0,25.07-14.64,15.6,15.6,0,0,0-12.28-21,22,22,0,0,0-15.16,2.83,23.85,23.85,0,0,0-3.42,2.41,21.46,21.46,0,0,0-6.49,9.39,16.07,16.07,0,0,0,1.09,13.47h0A16,16,0,0,0,302.82,190.07Z"/><path class="a65f9780-285c-4b38-abf2-e22ac7d99b93" d="M234.9,253.35a.19.19,0,0,1,.16.35c-3.68,1.93-7.35,3.86-11,5.87-12.78,7-25.46,14.47-37.54,22.62a.23.23,0,0,0,0,.4c13.47,6.34,13,22.05,24.57,26.25,15.93,4.75,25.65,11.34,30,27.23a.38.38,0,0,0,.55.22c14.49-9,25.05-25.13,31.89-40.69a.22.22,0,0,1,.41.16,100,100,0,0,1-10.28,22.15c-6.06,9.68-14,18.47-24.16,24a.68.68,0,0,1-1-.44,64.57,64.57,0,0,0-1.81-6.49c-4.37-12.72-13.42-17.81-25.72-21.52a19.4,19.4,0,0,1-5.35-2.41c-7.84-5.09-9.82-15.17-16-21.38a18.85,18.85,0,0,0-8.18-4.84l-3.22-1a.34.34,0,0,1-.09-.61c3.1-2.08,6.46-4.33,9.6-6.18A332.52,332.52,0,0,1,234.9,253.35Z"/><path class="a65f9780-285c-4b38-abf2-e22ac7d99b93" d="M149.87,385.71c-9.7-2.44-21.44-2.23-34.9.62l-3.06.64a.52.52,0,0,1-.6-.7l1.14-2.92c5-12.82,7.12-24.37,6.29-34.34a35.83,35.83,0,0,0-6.39-18.38c-7.81-10.73-22-15.61-41.18-14.11l-10.32.82a.63.63,0,0,1-.28-1.22l9.6-3.86c19.84-8,32.79-12.59,44.4-14.21,12-1.68,21.7.13,31.08,5.85a1.11,1.11,0,0,0,1.4-.2c15-16.7,29.39-46.83,38.08-79.79a81,81,0,0,1-17.94-4.43,68.06,68.06,0,0,1-12.63-6.18.3.3,0,0,1,0-.53l3.09-1.27c3.67-1.54,7.64-3.49,9.81-6.78a17.45,17.45,0,0,0,2-5.59c1.24-5.55,4-8.19,9.07-10.49l1.37-.69a4.38,4.38,0,0,0,.67-.37,15.16,15.16,0,0,0,6.79-7.42,12.07,12.07,0,0,0,.82-4.9c0-.26-.28-2.63-.41-3.8a.32.32,0,0,1,.47-.32l2.66,1.45a136.3,136.3,0,0,0,14.68,6.75c2.34-2.2,5.75-5.37,8.81-8a170.85,170.85,0,0,1,21.72-15.67,1,1,0,0,0,.51-.89c0-7.76,2.63-22.57,8.14-37.43,5.46-14.71,15.64-34.69,33.11-46.31,19.82-13.19,43.92-12.53,71.63,2h0a2.09,2.09,0,0,0,1.32.21,9.16,9.16,0,0,1,10.58,7.44,7.19,7.19,0,0,1-.32,4.23c-2.86,7.26-11.34,8-15.56,3a9,9,0,0,1-2-4.25,1.86,1.86,0,0,0-1.05-1.39c-23.19-10.64-42.93-10.35-58.68.85C261.46,99,253.3,132.44,252.66,146.3a.39.39,0,0,0,.55.36c25-11.41,52.83-16.21,78.65-13.53,26.32,2.74,49.29,12.94,64.69,28.73l2.28,2.34a.35.35,0,0,1-.16.58l-3.18.78c-1.43.35-2.83.73-4.23,1.13a48.31,48.31,0,0,1,3.13,5.85c1.14,2.46,2.44,5.94,3.54,8.76a.29.29,0,0,1-.48.3l-2.7-2.83c-4.12-4.15-11.17-5.92-17.35-7.16-3.66,1.55-7.21,3.26-10.63,5.08a18.26,18.26,0,0,1,4.88,4.07c1.07,1.26,2.52,3.39,3.69,5.07a.33.33,0,0,1-.43.48l-2.66-1.44a27,27,0,0,0-14.16-3.18,185,185,0,0,0-33.89,27.5,221.56,221.56,0,0,0-20.15,23.72.46.46,0,0,0,.58.68c25.76-12.77,45.14-12.71,62.46-12.66h3.35l.56-.6a29.47,29.47,0,0,0,5.7-10.8l.87-2.73a.38.38,0,0,1,.74,0c.82,4.55,1.58,9.37.84,13.94,3-.11,5.85-.33,8.75-.7,4.85-5.47,10.21-12.2,11-19.14,0,0,.21-2.21.36-3.82a.33.33,0,0,1,.64-.06,139.42,139.42,0,0,1,4.7,18.62c1.54-.65,3.1-1.37,4.69-2.18l2.87-1.47a.49.49,0,0,1,.71.48l-.37,3.21c-2.11,18.55-9.11,38.42-20.27,57.46-11.35,19.38-27.11,38.06-45.56,54l-1.24,1.06a169.27,169.27,0,0,1-78.06,37.38c-19.51,3.81-40.48,4.65-64,2.54a.44.44,0,0,0-.45.57c2.79,8.53,2.07,19.53-2.13,31.55a103.37,103.37,0,0,1-23.14,36.81L173.8,441a.71.71,0,0,1-1.2-.67l1.32-5.34c4.56-18.47,2.48-30.44-6.95-40A35.76,35.76,0,0,0,149.87,385.71Zm202.89-299a4.68,4.68,0,0,0,.76-9.19,3.19,3.19,0,0,0-1.44-.12,4.68,4.68,0,0,0-.76,9.19A2.94,2.94,0,0,0,352.76,86.75Zm38.5,86.87a17.39,17.39,0,0,1,2.09,1.18c-.86-2.66-1.72-5.32-2.75-7.92q-5.72,1.68-11.11,3.87A31.81,31.81,0,0,1,391.26,173.62Zm-21.46,7.7a19.65,19.65,0,0,0-3.91-4.17q-2.5,1.36-4.92,2.79A21,21,0,0,1,369.8,181.32Zm7.63,32.59a18.28,18.28,0,0,1-5.2,7c2.06,0,4.09,0,6.09-.11A59.62,59.62,0,0,0,377.43,213.91Zm22.93-8.34c-.05-.14-.09-.28-.14-.42-1.8,5.69-6.25,10.9-11,14.75a62.84,62.84,0,0,0,14.79-4C402.83,212.49,401.52,208.91,400.36,205.57ZM180.1,426.32a.5.5,0,0,0,.88.37c16.4-20.46,23.67-46,16.25-60.11L196,364.16a.75.75,0,0,1,.74-1.09l2.73.28c58.6,6.08,105.42-6.49,143.07-38.43l1.25-1.07C378.3,294,401.82,255.48,407.43,220a.4.4,0,0,0-.56-.42c-13.8,5.9-26.46,5.86-39.79,5.83-18.89-.06-40.29-.12-70,17.37l-6.27,3.69a.38.38,0,0,1-.52-.53l3.77-6.22c.39-.65,9.81-16,26.91-33.5,15.05-15.38,39-35.06,68.87-43.69a.45.45,0,0,0,.18-.77c-32.05-29.17-89.36-33.27-138.52-9.34l-2.18,1.06a.5.5,0,0,1-.73-.41l-.26-2.41c-.65-6.08,1.24-19.26,6.11-32.69,4.3-11.87,12.45-28.17,26.82-38.39,16.85-12,37.64-12.6,61.82-1.85a.57.57,0,0,0,.73-.23c.26-.42.52-.83.8-1.23a.57.57,0,0,0-.23-.84c-24.86-12.15-46.38-12.36-64-.63-16.48,11-26.18,30.08-31.41,44.17-6.17,16.62-8.28,31.94-7.8,37.5l.06.71a1.08,1.08,0,0,1-.53,1l-.61.37a164.63,164.63,0,0,0-22.78,16.23c-2.34,2-4.9,4.32-7,6.28,2.82,1,5.68,1.81,8.56,2.54l3.08.71,1.86.33a33.3,33.3,0,0,0,4.8.69,0,0,0,0,1,0,0l0,0c-3.37.76-9.26-.15-13.81-.94a100.65,100.65,0,0,1-22.4-7,.21.21,0,0,0-.29.18,17.09,17.09,0,0,1-5.55,11,25.54,25.54,0,0,1-3.7,2.75,17.48,17.48,0,0,1-1.6.86l-1.55.79c-7.39,3.27-4.77,8.46-8.59,14.1a19.41,19.41,0,0,1-7.89,6.31.25.25,0,0,0,0,.45l.62.33a100.67,100.67,0,0,0,33,10.09.14.14,0,0,1,0,.27q-3.62.08-7.22-.18c-9.35,35.81-24.74,67.34-41.24,84.43l-.7.73a1,1,0,0,1-1.3.14l-.84-.58c-16-10.94-31.68-8.64-59.28,1.67a.82.82,0,0,0,.19,1.58c13,1.58,23.1,6.89,29.5,15.7a40.11,40.11,0,0,1,7.23,20.62c.77,9.28-.82,19.76-4.72,31.22a.84.84,0,0,0,.94,1.11c11.94-2,22.54-1.84,31.58.44a40.15,40.15,0,0,1,19.16,10.48C178.82,400.73,182,411.57,180.1,426.32Z"/></svg>