<svg id="fa928d20-5ef8-4bda-8fff-d81bbd9645c1" data-name="Calque 1" xmlns="http://www.w3.org/2000/svg" xmlns:xlink="http://www.w3.org/1999/xlink" viewBox="0 0 500 500"><defs><style>.a1be0f5e-7df6-4909-adae-57ec7b85682a{fill:url(#bf74f081-a388-4027-aa8b-5b3537d29cd4);}.ea73e08b-5e23-4747-b783-3a6232da2549{fill:#fff;stroke:#fff;stroke-miterlimit:10;stroke-width:4.76px;}</style><linearGradient id="bf74f081-a388-4027-aa8b-5b3537d29cd4" x1="79.35" y1="-45.86" x2="420.86" y2="545.65" gradientUnits="userSpaceOnUse"><stop offset="0" stop-color="#29abe2"/><stop offset="0.35" stop-color="#1791d1"/><stop offset="0.75" stop-color="#067ac2"/><stop offset="1" stop-color="#0071bc"/></linearGradient></defs><rect class="a1be0f5e-7df6-4909-adae-57ec7b85682a" x="0.11" y="-0.11" width="500" height="500"/><path class="ea73e08b-5e23-4747-b783-3a6232da2549" d="M72.9,285.18c9.17-6.93,21.86-11.65,35.73-13.27a88.24,88.24,0,0,1,11-.59,2,2,0,0,0,2-1.38c19.71-59.77,64.34-125.66,106.54-134.56q5.56-1.19,11-1.93a.52.52,0,0,0,.29-.9c-12.48-11-28.56-19.23-42.4-21.59-25.15-4.27-38.79-9.91-42.93-17.75a11.35,11.35,0,0,1,.14-10.79c5-10.16,19.15-16.38,36.09-15.86,14.85.46,30.41,6.1,43.8,15.87,15.75,11.49,28.38,28.16,37.59,49.53a1.43,1.43,0,0,0,1.18.86,121.25,121.25,0,0,1,14.22,2.41,106.67,106.67,0,0,1,36.55,16,.05.05,0,0,0,.08,0c7.6-10.78,41.6-57,67-59.3A18.35,18.35,0,0,1,406,97.35c6.8,6.81,9.75,14.88,8.78,24-3.18,29.81-47.71,61.83-57.58,68.58a.1.1,0,0,0,0,.14c7.89,16,12,34.4,11.86,54a.36.36,0,0,0,.22.34c15.82,6.2,36,18.32,46.22,41.36s5.47,77,.13,98.13c-2.33,9.29-8.85,15-17.43,15.22h-.55c-8.63,0-16.85-5.64-19.27-13.31-3.2-10.19-3.91-24.3-4.65-39.25-.92-18.59-1.88-37.82-7.68-51.12-1.21-2.79-3.71-5.23-7.41-7.29a.16.16,0,0,0-.2.06c-10.6,18.87-27.78,34.37-42.66,45.32-26.57,19.56-60.79,35.58-94.31,44.2a1.22,1.22,0,0,0-.92,1.2A72.11,72.11,0,0,1,218,399.46c-6.89,25.45-25.78,43.29-44.28,43.29a28.21,28.21,0,0,1-7-.88c-20.31-5.24-29.27-32.5-23.31-60.78a1,1,0,0,0-.66-1.14,47.93,47.93,0,0,1-17.29-10.12c-7.59-7.18-12.22-17.78-13.81-31.52a2.41,2.41,0,0,0-2.51-2.1c-1,0-2,.05-2.91.05-24.76,0-44.52-10.82-46.42-26.31C58.7,301.2,63.36,292.4,72.9,285.18ZM265.35,129.92c-8.68-18.67-20.16-33.3-34.21-43.56C218.57,77.19,204,71.9,190.19,71.47c-14.7-.45-27.33,4.8-31.4,13.07A6.71,6.71,0,0,0,158.6,91c3.26,6.19,16.49,11.29,39.31,15.16,15.72,2.68,34.07,12.45,47.55,25.19a4.11,4.11,0,0,0,3.17,1.13,138,138,0,0,1,15.18-.29A1.59,1.59,0,0,0,265.35,129.92Zm144.44-9.09c.83-7.69-1.59-14.25-7.37-20a13.31,13.31,0,0,0-11.23-4c-22.06,2-53.6,43.75-62.38,56a1.83,1.83,0,0,0,.37,2.52q2.13,1.69,4.18,3.49A101,101,0,0,1,354,184.11a1.5,1.5,0,0,0,2.18.48C368.34,176,407,146.7,409.79,120.83Zm-48,163.46c4.31,2.53,7.29,5.63,8.86,9.24,6.15,14.11,7.13,33.78,8.08,52.8.72,14.63,1.41,28.45,4.43,38.05,1.83,5.79,8.22,10,14.87,9.83,6.27-.17,10.9-4.36,12.69-11.48,5.4-21.44,9.56-73.8.13-95-9.16-20.65-27-32-41.64-38a.26.26,0,0,0-.35.22c-.16,3.26-.42,6.54-.8,9.85a73.31,73.31,0,0,1-6.79,22.91A1.24,1.24,0,0,0,361.81,284.29ZM168,437.12c17.82,4.6,38.08-12.86,45.14-38.91a68.85,68.85,0,0,0,2.4-16.06,2.33,2.33,0,0,0-2.86-2.3c-23.71,5.17-45.23,6-61.73,2.41a2.65,2.65,0,0,0-3.17,2C142,409.28,150.75,432.68,168,437.12Zm-51.75-103.8c.93,14.78,5.21,25.88,12.72,33,4.63,4.38,10.83,7.74,18.43,10h0c17.43,5.11,42.26,4.2,69.93-2.57h0c67-16.39,139.83-63.71,145.78-114.51,4.55-38.93-7.51-74.22-33.1-96.84s-61.4-30.51-100.79-22.19c-18.45,3.89-39.59,20.76-59.54,47.5-18.57,24.9-34.71,56.57-44.3,86.9C118.36,296.73,115.2,317,116.22,333.32ZM64.78,309.37c1.59,13,20.14,22.26,42.61,22a3.6,3.6,0,0,0,3.62-3.58c-.08-14.2,2.57-30.83,7.76-48.74a2.19,2.19,0,0,0-2.2-2.76q-3.66.11-7.34.54c-13,1.51-24.79,5.88-33.24,12.28C67.9,295.18,63.92,302.39,64.78,309.37Z"/><ellipse class="ea73e08b-5e23-4747-b783-3a6232da2549" cx="397.87" cy="125.41" rx="4.45" ry="4.34"/><ellipse class="ea73e08b-5e23-4747-b783-3a6232da2549" cx="382.86" cy="111.84" rx="4.45" ry="4.34"/></svg>