<svg id="bb600914-40c8-44e2-9d6c-28d7ec6990af" data-name="Calque 1" xmlns="http://www.w3.org/2000/svg" xmlns:xlink="http://www.w3.org/1999/xlink" viewBox="0 0 500 500"><defs><style>.aba375a7-b55d-405a-ad6c-eacd2adeb317{fill:url(#a061d655-f89e-45a8-b0f1-f7e4384061d2);}.bae62449-d086-4624-8385-1a7475b8c749{fill:#fff;stroke:#fff;stroke-miterlimit:10;stroke-width:5.23px;}</style><linearGradient id="a061d655-f89e-45a8-b0f1-f7e4384061d2" x1="79.35" y1="-45.86" x2="420.86" y2="545.65" gradientUnits="userSpaceOnUse"><stop offset="0" stop-color="#29abe2"/><stop offset="0.35" stop-color="#1791d1"/><stop offset="0.75" stop-color="#067ac2"/><stop offset="1" stop-color="#0071bc"/></linearGradient></defs><rect class="aba375a7-b55d-405a-ad6c-eacd2adeb317" x="0.11" y="-0.11" width="500" height="500"/><path class="bae62449-d086-4624-8385-1a7475b8c749" d="M449.52,163.93c-1.88-3.71-8.33-7.16-41.7-4.76a.28.28,0,0,1-.27-.15c-8.42-16.37-26.58-19.69-33.47-21-23-4.2-32.16-3.27-50.43-1.41-3.09.32-6.59.67-10.41,1a19.32,19.32,0,0,1-12.1-2.85c-7-4.45-12.68-10.07-17.71-15-3.64-3.59-6.78-6.69-9.63-8.51-6.25-4-19.06-8.41-25.9-5.92-4.3,1.58-6.93,3.89-7.8,6.86-1.59,5.45,3,11.56,6,15.61.55.74,1,1.38,1.39,1.91,5.13,7.59,4.73,16-1.17,24.85a19.64,19.64,0,0,1-6.93,6.29c-27,14.78-52.32,36.15-75.27,63.52-26.47,31.57-50,71.45-70,118.55a19.87,19.87,0,0,1-13.4,11.45C58.45,360,47,373.14,45.51,383.72c-.77,5.51,1.12,10,5.19,12.43,3,1.76,9,2.41,14.76,3,4.58.5,8.91,1,11.27,1.92,3,1.19,6.16,4.25,9.54,7.49,4.44,4.25,9,8.65,13.66,9.08l.45,0a4.34,4.34,0,0,0,3.21-1.44c4.1-4.28,4.73-18.57,1.88-42.46a20.08,20.08,0,0,1,3-13.15c14.88-23.35,71.49-100.54,176.81-117a.16.16,0,0,1,.17.18,31.12,31.12,0,0,1-.73,3.11c-5,17.37-5,28.55,0,30.67a4.53,4.53,0,0,0,1.81.36c7.12,0,19.78-14.13,36.19-40.14a.45.45,0,0,1,.31-.21c4.58-.91,9.27-2.09,14-3.46a.47.47,0,0,1,.5.17l.07.1c8.44,11.18,14.49,16.39,18.83,16.39a4.42,4.42,0,0,0,1.82-.37c6.34-2.77,3.79-22.41,3.41-24.93,8.85-3.57,16.64-7.14,22.21-9.83,15.54-7.49,61-32.16,65.86-46.77A6.33,6.33,0,0,0,449.52,163.93Zm-92,84.91c-1.91.84-6.8,0-18.22-15a.28.28,0,0,1,.14-.44c7.07-2.16,14.05-4.69,20.52-7.25C360.75,231.7,361.8,247,357.51,248.84ZM448,168.36c-4.32,13-45.64,36.43-65,45.75-12.62,6.09-36.7,16.78-58.61,21.42a.16.16,0,0,1-.16-.24q7.6-12.22,16.19-27.68a.89.89,0,0,0-.32-1.2.87.87,0,0,0-1.18.34c-14,25.21-26.08,44.06-35.93,56-11.42,13.88-16.17,13.88-17.68,13.23-3.89-1.66-3.5-12.88,1-28.57,3.78-13.17-.63-26.89-.82-27.47a.85.85,0,0,0-1.09-.55.87.87,0,0,0-.54,1.1,54.64,54.64,0,0,1,1.88,21.14.24.24,0,0,1-.17.18C179.2,258.19,122,336.15,107,359.7A21.85,21.85,0,0,0,103.76,374c2.7,22.68,2.21,37.25-1.4,41a2.68,2.68,0,0,1-2.28.89c-4-.37-8.4-4.56-12.63-8.62-3.5-3.35-6.8-6.52-10.09-7.84-2.58-1-7-1.52-11.72-2-5.61-.6-11.4-1.23-14.08-2.8-3.43-2-5-5.9-4.34-10.67,1.4-10,12.43-22.5,33.88-27.85a21.62,21.62,0,0,0,14.06-11.35h0c.11-.19,10.53-20.05,34.94-47.05,22.55-24.94,62-61.22,121.66-92.4a.88.88,0,0,0,.37-1.18.85.85,0,0,0-1.16-.38,466.62,466.62,0,0,0-73.51,47.45,402.13,402.13,0,0,0-48.63,45.33A310.06,310.06,0,0,0,102,330.4a.25.25,0,0,1-.43-.26c36.62-81,83.2-137.38,138.59-167.7a21.31,21.31,0,0,0,7.55-6.85c6.25-9.43,6.65-18.7,1.16-26.82-.38-.56-.87-1.22-1.44-2-2.63-3.54-7.05-9.45-5.71-14.05.71-2.41,3-4.33,6.74-5.71,6.08-2.23,18.31,1.85,24.39,5.75,2.7,1.72,5.78,4.77,9.35,8.29,5.09,5,10.85,10.7,18,15.25a21,21,0,0,0,13.17,3.11c3.83-.36,7.33-.71,10.42-1,18.11-1.84,27.2-2.76,49.95,1.4,6.76,1.23,24.7,4.51,32.58,20.68l.16.32a.33.33,0,0,0,.33.19l.35,0c22.58-1.67,35.64-.85,39.72,2.49a.24.24,0,0,1-.05.4c-38.1,16.19-81.79,28.47-82.23,28.59a.87.87,0,0,0-.6,1.08.86.86,0,0,0,.83.64.91.91,0,0,0,.23,0c.44-.12,44.56-12.53,82.86-28.85a.29.29,0,0,1,.24,0C448.73,165.59,448.45,167.13,448,168.36Z"/><path class="bae62449-d086-4624-8385-1a7475b8c749" d="M338.86,169.07a4.89,4.89,0,0,0-3.89,1,5.84,5.84,0,0,0-2.14,3.61,5.9,5.9,0,0,0,.74,4.15,4.93,4.93,0,0,0,3.29,2.32,5,5,0,0,0,.86.08,5.47,5.47,0,0,0,5.17-4.67,5.91,5.91,0,0,0-.75-4.15A4.91,4.91,0,0,0,338.86,169.07Zm2.33,6.15a3.64,3.64,0,0,1-4,3.19,3.23,3.23,0,0,1-2.14-1.52,4.17,4.17,0,0,1-.51-2.91,4.1,4.1,0,0,1,1.5-2.53,3.22,3.22,0,0,1,2-.71,2.67,2.67,0,0,1,.56.06,3.17,3.17,0,0,1,2.13,1.52A4.08,4.08,0,0,1,341.19,175.22Z"/></svg>