<svg id="f2a4d06d-ad2a-44bc-bf39-5e0e10a4801c" data-name="Calque 1" xmlns="http://www.w3.org/2000/svg" xmlns:xlink="http://www.w3.org/1999/xlink" viewBox="0 0 500 500"><defs><style>.a768e48d-5821-4d10-bf74-bf73bc93ce71{fill:url(#a711292d-fc47-466b-adf7-7b882e37c5a9);}.fe2585cd-e7a3-4e84-8e95-f2c11bae067b{fill:#fff;stroke:#fff;stroke-miterlimit:10;stroke-width:2.38px;}</style><linearGradient id="a711292d-fc47-466b-adf7-7b882e37c5a9" x1="79.35" y1="-45.86" x2="420.86" y2="545.65" gradientUnits="userSpaceOnUse"><stop offset="0" stop-color="#29abe2"/><stop offset="0.35" stop-color="#1791d1"/><stop offset="0.75" stop-color="#067ac2"/><stop offset="1" stop-color="#0071bc"/></linearGradient></defs><rect class="a768e48d-5821-4d10-bf74-bf73bc93ce71" x="0.11" y="-0.11" width="500" height="500"/><path class="fe2585cd-e7a3-4e84-8e95-f2c11bae067b" d="M382.81,141.86c-2.92-22.85-14-40.84-31.08-50.67s-38.22-10.28-59.42-1.29-39.71,26.15-52.53,48.47h0a1.55,1.55,0,0,0,.57,2.1l12.34,7.08c-7.3,14.1-15.34,18-25.43,22.89-13.56,6.57-30.44,14.74-54,50.36-6.57,9.92-14.32,18.94-21.82,27.66-4.95,5.76-10.08,11.71-14.78,17.85-4.18,5.44-7.5,11.64-10.71,17.64-5,9.29-10.12,18.91-18.52,25.73a83.91,83.91,0,0,1-10.62,6.94C90.61,320.22,84.22,324,80.16,330a.62.62,0,0,0,1,.69c3.9-5.8,9.89-9.3,16.23-13a85.49,85.49,0,0,0,10.77-7c8.59-7,13.8-16.7,18.83-26.11,3.19-5.95,6.49-12.11,10.6-17.47,4.68-6.1,9.8-12.05,14.74-17.79,7.52-8.75,15.3-17.8,21.91-27.78,23.4-35.34,40.11-43.44,53.54-49.94,10.28-5,18.48-9,25.95-23.38l3.38,1.94c-9.66,12.58-18.63,18.2-28.11,24.14-15,9.39-30.46,19.1-49.7,57.54-5,10.05-11.54,15.52-18.42,21.3-5.62,4.72-11.42,9.6-16.44,17.19-1.87,2.81-3.72,5.89-5.68,9.15-8.24,13.72-18.51,30.79-38,40.8a.61.61,0,0,0,.28,1.15.67.67,0,0,0,.28-.06c19.82-10.17,30.19-27.41,38.51-41.25,2-3.25,3.8-6.32,5.65-9.12,4.92-7.44,10.66-12.26,16.21-16.92,6.67-5.61,13.58-11.41,18.72-21.7,19.09-38.13,34.43-47.74,49.26-57,9.61-6,18.7-11.72,28.54-24.56l3.63,2.08c-9.42,12.07-17.32,16.28-25,20.35-12,6.39-24.43,13-42.43,49.74-5.05,10.32-13.84,19.19-22.33,27.76-7.73,7.8-15,15.16-19.83,23.58-9.3,16.3-14.93,25.38-31.6,37.61a.62.62,0,0,0-.13.86.61.61,0,0,0,.49.25.6.6,0,0,0,.36-.12c16.84-12.35,22.83-22,31.95-38,4.72-8.27,12-15.58,19.63-23.32,8.56-8.64,17.42-17.58,22.56-28.08,17.83-36.38,29.52-42.61,41.91-49.19,7.79-4.15,15.84-8.44,25.46-20.82l3.55,2c-9.11,10.34-16.95,15.05-24.54,19.61-13.44,8.06-26.13,15.68-43.77,52.42-5,10.39-12.39,18.44-19.56,26.22-6.8,7.39-13.84,15-18.48,24.48-6.2,12.63-8.36,14.58-14.79,20.38-2.13,1.92-4.78,4.31-8.19,7.65a.61.61,0,0,0,.43,1.05.61.61,0,0,0,.42-.17c3.4-3.32,6-5.71,8.17-7.62,6.55-5.91,8.76-7.9,15.06-20.75,4.56-9.29,11.23-16.53,18.28-24.19,7.23-7.85,14.7-16,19.77-26.52,17.48-36.41,30-43.93,43.29-51.9,7.72-4.63,15.7-9.42,25-20l3.61,2.07c-8.49,9.4-16.27,15.28-23.81,21-15.09,11.39-29.34,22.15-46.67,59-4.94,10.5-10.86,16.34-16.58,22-6,5.95-11.73,11.58-16.15,22.07-6.71,15.92-17.16,35.1-28.69,52.61a.61.61,0,0,0,.17.85.59.59,0,0,0,.34.1.6.6,0,0,0,.51-.27c11.57-17.58,22.07-36.83,28.8-52.81,4.32-10.27,9.94-15.81,15.88-21.68,5.8-5.72,11.8-11.64,16.83-22.34,17.2-36.53,31.34-47.2,46.3-58.5,7.64-5.77,15.52-11.73,24.15-21.33L276,160.9a66.34,66.34,0,0,1-20.54,17.39c-9.85,5.81-19.15,11.31-34.37,44.25-4.88,10.55-13.63,20.55-22.09,30.22-9.34,10.68-19,21.71-23.18,33.33-7.21,20.07-21.5,37.36-33.15,50.17A93.62,93.62,0,0,1,132,345.78c-4.41,3.57-9,7.26-12.62,11.75a.61.61,0,0,0,.09.86.59.59,0,0,0,.39.14.62.62,0,0,0,.48-.23c3.56-4.39,8.07-8,12.43-11.56a96.72,96.72,0,0,0,10.77-9.65c11.72-12.9,26.11-30.31,33.4-50.58,4.1-11.4,13.68-22.35,22.94-32.94,8.52-9.74,17.33-19.8,22.28-30.52,15.06-32.59,23.78-37.74,33.88-43.71,6.19-3.65,12.58-7.43,21-17.82l3.76,2.16C273.66,174,267,178.37,260,183c-11,7.29-22.36,14.83-36.3,45.52-4.82,10.62-12.15,19.54-19.25,28.16-8.7,10.57-16.92,20.56-20.81,33.34-.61,2-1.17,3.88-1.71,5.69-4.81,16.06-7.71,25.76-19.67,39.7a.62.62,0,0,0,.07.87.58.58,0,0,0,.39.15.62.62,0,0,0,.47-.22c12.13-14.14,15.06-23.93,19.91-40.15.54-1.81,1.11-3.7,1.71-5.69,3.82-12.54,12-22.44,20.59-32.91,7.14-8.69,14.53-17.67,19.42-28.43,13.79-30.38,25-37.81,35.86-45,7.15-4.74,13.93-9.24,21.2-19.76l3.5,2c-7.29,8.64-13.45,13-19.42,17.25-10.68,7.58-20.76,14.73-34.51,45.55-4.7,10.52-12.55,21.16-20.15,31.45C201.32,274,191,288,187.42,302.09a.62.62,0,0,0,.44.75l.16,0a.62.62,0,0,0,.59-.46c3.55-13.9,13.77-27.74,23.65-41.12,7.63-10.34,15.52-21,20.27-31.68,13.62-30.51,23.57-37.57,34.11-45,6.07-4.31,12.34-8.77,19.79-17.63l3.84,2.2c-6.42,9.93-12.58,14.33-19.09,19-9.87,7-20.08,14.32-32,41.54-4.72,10.76-11.72,20-18.48,29-9.36,12.4-18.19,24.12-21.39,39.29-3.14,14.84-7,18.93-13.32,25.7a142.59,142.59,0,0,0-10.18,11.82.61.61,0,0,0,.11.86.58.58,0,0,0,.37.13.63.63,0,0,0,.49-.24,142.11,142.11,0,0,1,10.1-11.73c6.5-6.93,10.42-11.11,13.63-26.29,3.14-14.9,11.9-26.51,21.16-38.81,6.81-9,13.85-18.37,18.63-29.25,11.81-26.92,21.88-34.1,31.61-41,6.62-4.72,12.89-9.19,19.44-19.36l3.42,2a181.44,181.44,0,0,1-16,15.9c-12.18,11.05-22.7,20.59-35.6,50.5-4.35,10.06-11.21,21.22-18.47,33-11.61,18.88-23.61,38.4-26.56,55.6a.62.62,0,0,0,.5.71h.11a.61.61,0,0,0,.6-.51c2.9-17,14.85-36.39,26.39-55.17,7.29-11.85,14.17-23,18.55-33.19,12.8-29.66,23.23-39.12,35.3-50.07a182.49,182.49,0,0,0,16.29-16.19l3.42,2c-4.73,4.26-8.72,7.44-12.28,10.27-12.4,9.86-19.23,15.29-32.34,46.19-4.63,10.92-11.37,20.52-17.89,29.81-10,14.23-19.41,27.66-21.78,45.29-3.18,23.55-13.29,44.22-29.24,59.78a.6.6,0,0,0,0,.86.59.59,0,0,0,.44.19.6.6,0,0,0,.43-.18c16.16-15.74,26.39-36.66,29.6-60.48,2.34-17.34,11.68-30.66,21.57-44.76,6.56-9.34,13.33-19,18-30,13-30.61,19.73-36,32-45.7,3.65-2.9,7.76-6.17,12.63-10.59l3.77,2.17c-4.09,4.48-7.86,8.21-11.51,11.82-11.89,11.74-22.16,21.89-34.15,50.63-4.7,11.26-10.81,19.74-16.72,27.94-8.77,12.19-17.06,23.7-18.95,42.31-1.92,18.91-12,33.42-22.68,48.78-2.73,3.93-5.56,8-8.22,12.11-3.21,5-9,9.66-14.59,14.19-3,2.47-5.94,4.81-8.4,7.17a.61.61,0,0,0,0,.86.6.6,0,0,0,.45.19.63.63,0,0,0,.42-.17c2.42-2.32,5.29-4.64,8.32-7.09,5.67-4.59,11.53-9.34,14.85-14.49,2.65-4.1,5.47-8.15,8.19-12.07,10.78-15.5,21-30.13,22.9-49.36,1.86-18.28,10.05-29.66,18.73-41.71,5.94-8.26,12.09-16.8,16.85-28.19,11.9-28.51,21.6-38.1,33.88-50.23,3.72-3.67,7.56-7.47,11.74-12.07l3.36,1.93c-1.82,1.5-3.52,2.88-5.06,4.12-15.74,12.74-20.49,16.58-33.41,48.07-7.11,17.33-12.81,25.9-20,36.74-4.85,7.29-10.35,15.55-17.27,28.06a.62.62,0,0,0,.53.91.62.62,0,0,0,.54-.32c6.9-12.47,12.38-20.7,17.22-28,7.27-10.9,13-19.51,20.16-37,12.79-31.19,17.49-35,33-47.57,1.64-1.33,3.47-2.81,5.43-4.42l3.79,2.17c-3.29,3.38-6.19,6.15-8.79,8.61-10.34,9.84-16.59,15.77-26.87,41.29-4.53,11.27-11,21.37-17.32,31.13-10.87,16.88-21.13,32.82-22,54.17-.71,16.61-10.51,28.23-20.89,40.53-5.43,6.44-11.05,13.1-15.35,20.6a.62.62,0,0,0,.22.84.68.68,0,0,0,.31.08.6.6,0,0,0,.53-.31c4.25-7.41,9.83-14,15.22-20.42,10.52-12.46,20.46-24.24,21.18-41.27.9-21,11.08-36.82,21.85-53.55,6.32-9.82,12.85-20,17.43-31.34,10.18-25.27,16.35-31.14,26.58-40.86,2.66-2.53,5.64-5.37,9-8.87l3.89,2.23c-3.53,5.12-6.82,9.24-10,13.21-7.7,9.61-15,18.68-23.22,39.57-4.69,11.87-11.39,21.67-17.86,31.15-10.65,15.57-20.71,30.29-21.08,52.35-.26,15.93-7.73,23.12-16.38,31.45-5.71,5.5-11.61,11.18-16.39,20a.61.61,0,0,0,.25.83.59.59,0,0,0,.29.07.62.62,0,0,0,.54-.32c4.69-8.68,10.52-14.29,16.16-19.73,8.84-8.51,16.48-15.87,16.76-32.31.36-21.69,10.32-36.26,20.86-51.68,6.51-9.53,13.25-19.39,18-31.39,8.19-20.72,15.4-29.72,23-39.25,3.22-4,6.54-8.17,10.12-13.36l3.32,1.9c-14.58,14.11-19.21,18.91-29.54,45.62-4.26,11-10.43,21.94-16.4,32.53-11.68,20.72-23.77,42.15-23.59,66.62a.62.62,0,0,0,.62.61h0a.62.62,0,0,0,.61-.62c-.18-24.14,11.82-45.42,23.43-66C284,256,290.2,245,294.49,233.91c10.29-26.61,14.88-31.27,29.5-45.43l3.22,1.85c-15.63,10.15-17.69,14.36-26.64,38-4.19,11.1-10.12,22-15.86,32.45-11.53,21.09-23.44,42.9-22.68,68.68.5,16.8-10.45,28-22,39.95-7.49,7.69-15.23,15.64-19.83,25.32a.6.6,0,0,0,.29.81.58.58,0,0,0,.26.06.6.6,0,0,0,.55-.35c4.52-9.49,12.19-17.37,19.61-25,11.78-12.1,22.92-23.53,22.4-40.85-.76-25.44,11.08-47.1,22.53-68.05,5.75-10.53,11.7-21.43,15.93-32.61,8.92-23.59,10.89-27.57,26.68-37.77l4.56,2.61c-2.81,6.5-6.23,11-9.83,15.78-4.83,6.38-9.83,13-14.3,25.15s-10.91,23-17.17,33.64c-11.88,20.13-23.1,39.14-21.78,65.22.88,17.3-12.35,31.61-25.13,45.45-8.37,9.05-17,18.42-21.5,28.47a.61.61,0,0,0,.31.81.74.74,0,0,0,.25.05.63.63,0,0,0,.56-.36c4.39-9.87,13-19.16,21.28-28.14,13-14,26.36-28.53,25.45-46.34-1.3-25.71,9.83-44.57,21.61-64.53C299,258.18,305.5,247.16,310,235c4.41-12,9.35-18.52,14.13-24.83,3.63-4.79,7.07-9.35,9.92-15.9l2.89,1.66c-10.82,9.78-16,25-21.55,41-.88,2.57-1.79,5.23-2.72,7.85-4.52,12.7-10.65,22.77-16.57,32.51-10.41,17.11-20.24,33.26-18.35,60.06,1.21,17.33-10.13,28.58-22.14,40.5-8.28,8.21-16.85,16.71-21.34,27.53-.63,1.5-1.13,2.85-1.62,4.17-2,5.34-3.3,8.87-9.16,12.82a.61.61,0,0,0-.17.85.6.6,0,0,0,.51.27.59.59,0,0,0,.34-.1c6.19-4.17,7.63-8,9.63-13.42.48-1.3,1-2.64,1.6-4.12,4.4-10.6,12.87-19,21.07-27.13,12.22-12.12,23.76-23.56,22.5-41.46-1.86-26.41,7.87-42.4,18.17-59.33,6-9.79,12.12-19.92,16.68-32.74.93-2.63,1.85-5.29,2.73-7.86,5.51-16,10.72-31.23,21.51-40.79l4.74,2.72c-1.18,7.34-4.69,12.46-8.71,18.34-3.53,5.15-7.18,10.49-9.76,18-8.17,24-16.74,40.13-26.66,58.83-5.29,10-10.76,20.29-16.86,33a.61.61,0,0,0,.29.81.53.53,0,0,0,.27.06.61.61,0,0,0,.55-.34c6.08-12.69,11.55-23,16.83-32.95,9.95-18.76,18.54-34.95,26.74-59,2.52-7.4,6.13-12.66,9.61-17.75,3.86-5.63,7.52-11,8.82-18.39l3,1.72c-.93,1.58-1.84,3.08-2.72,4.55-5.5,9.14-9.84,16.37-13.58,28-4.15,12.9-10.47,24.9-16.58,36.5-11.66,22.14-23.72,45-20.6,74.56,1.89,17.9-9.88,29.19-22.35,41.14-9.07,8.7-18.45,17.69-22.72,29.66a.6.6,0,0,0,.37.78.51.51,0,0,0,.2,0,.61.61,0,0,0,.58-.41c4.18-11.7,13.45-20.59,22.42-29.19,12.69-12.16,24.67-23.66,22.72-42.15C291.55,316,303,294.23,315.1,271.25c6.14-11.66,12.49-23.7,16.67-36.71,3.69-11.48,8-18.65,13.46-27.73.89-1.47,1.8-3,2.73-4.56l2.86,1.63c-9.86,7.2-13.73,20.39-16.88,31.12l-.36,1.25c-3.81,12.93-10,24.87-16,36.42-12.39,23.79-24.09,46.25-16.28,76.49-.23,17.64-11.31,28.55-23,40.1-9.38,9.23-19.08,18.78-22.82,32.06a62.61,62.61,0,0,0-2.06,7.53c-1.5,6.51-3.2,13.89-8.43,16.83a.62.62,0,0,0-.24.84.61.61,0,0,0,.54.31.67.67,0,0,0,.3-.08c5.7-3.21,7.47-10.87,9-17.62a59.58,59.58,0,0,1,2-7.42c3.67-13,13.25-22.46,22.52-31.58,11.4-11.23,23.2-22.84,23.4-41V349l0-.08c-7.74-29.83,3.87-52.11,16.16-75.71,6-11.59,12.28-23.59,16.12-36.64l.37-1.24c3.14-10.71,7-23.92,16.87-30.79l13.63,7.82a1.21,1.21,0,0,0,1.65-.45l.16-.27C380.25,189.33,385.71,164.54,382.81,141.86ZM364.49,208.2,245.34,139.8a2.42,2.42,0,0,1-.84-3.36c12.38-20.06,29.66-35.51,49-43.72,20.3-8.61,40.44-8.21,56.7,1.13s26.77,26.52,29.57,48.4c2.71,21.22-2.13,44.38-13.66,65.5A1.18,1.18,0,0,1,364.49,208.2Z"/></svg>