<svg id="fdd63f1b-9d9e-4e68-803a-bea7b8dbace1" data-name="Calque 1" xmlns="http://www.w3.org/2000/svg" xmlns:xlink="http://www.w3.org/1999/xlink" viewBox="0 0 500 500"><defs><style>.af7405d9-f922-4e71-a156-063898e3fa35{fill:url(#b5f936e9-9686-490f-82e1-3eac229ea3da);}.fd5259d4-44ea-494f-b6e7-88c1a471acbc{fill:#fff;stroke:#fff;stroke-miterlimit:10;stroke-width:4.76px;}</style><linearGradient id="b5f936e9-9686-490f-82e1-3eac229ea3da" x1="79.35" y1="-45.86" x2="420.86" y2="545.65" gradientUnits="userSpaceOnUse"><stop offset="0" stop-color="#29abe2"/><stop offset="0.35" stop-color="#1791d1"/><stop offset="0.75" stop-color="#067ac2"/><stop offset="1" stop-color="#0071bc"/></linearGradient></defs><rect class="af7405d9-f922-4e71-a156-063898e3fa35" x="0.11" y="-0.11" width="500" height="500"/><path class="fd5259d4-44ea-494f-b6e7-88c1a471acbc" d="M446.55,128.42l-5.35-1.35c-59.28-15-107-15.53-136.58-13.32h0a10.16,10.16,0,0,1-7.75-2.75c-1.6-1.51-3.26-3.16-5-4.84C281,95.41,268.66,83.22,258.17,89.89a3.81,3.81,0,0,0-1.81,2.65c-.45,2.74,2.05,5.84,5.22,9.77,3.88,4.82,8.71,10.81,7.23,15.61a6.46,6.46,0,0,1-.26.69c-.84,1.88-2.69,3.59-5.54,5.11a39.4,39.4,0,0,1-7.15,2.83,35.62,35.62,0,0,1-7.72,1.54c-2.94.19-5.1-.31-6.37-1.51a1.36,1.36,0,0,1-.12-.12c-3.21-3.25-1.29-11.49.25-18.11,1.63-7,3-13-1.37-14.26-7-2-15.56,7-26.22,27.44-4.06,7.8-7.64,15.8-10.08,21.54a11.13,11.13,0,0,1-4.27,5q-3.77,2.39-7.71,5.07a352,352,0,0,0-59.2,51.17c-23.13,24.78-44.11,53.76-62.38,86.14a1.89,1.89,0,0,0,3.06,2.17h0c59.7-67.76,95.23-56.57,129.59-45.74,15.6,4.92,29.15,8.91,46.56,6.44a.39.39,0,0,1,.43.31c1,6.19,3.66,22.48,3.66,22.48a35.4,35.4,0,0,1,.45,4.82c.18,7,.37,18.09-.1,22.76-1.36,13.58-6.32,32.63-11.58,52.8-6.48,24.9-13.17,50.61-13.66,68.43a2,2,0,0,0,1.76,2,1.87,1.87,0,0,0,2-1.82c.45-17.38,7.11-42.94,13.55-67.7,5.29-20.31,10.29-39.51,11.68-53.37.46-4.62.33-14.8.16-21.91a65.21,65.21,0,0,1,.7-11.26L262,250.49a.57.57,0,0,1,.38-.46c26.58-9.14,46.13-29.32,66.68-50.52,28.74-29.66,58.45-60.33,112-68.75l5.46-.86A.76.76,0,0,0,446.55,128.42ZM256.11,264.35a.11.11,0,0,1-.21,0L254,252.73a.28.28,0,0,1,.22-.32c1.19-.3,2.37-.61,3.54-.94a.18.18,0,0,1,.23.2ZM427.63,129.57a156.45,156.45,0,0,0-54.18,24.68c-18.1,12.71-32.84,27.92-47.09,42.64-23.13,23.87-45,46.41-76.84,52.71-15.45,3.05-29.83-1.48-45.06-6.28-30.24-9.53-64.08-20.19-114.64,27.2A1.2,1.2,0,0,1,88,269c37.34-58.34,77.6-93.13,106.22-112.59,2.51-1.71,5-3.33,7.38-4.86l1.55-1a10.29,10.29,0,0,0,4-4.74c.38-.9.79-1.87,1.23-2.89,2.38-5.51,5.62-12.69,9.28-19.69,13-24.93,19.58-26.16,21.82-25.54h0c.8.92-.5,6.47-1.27,9.78-1.71,7.32-3.62,15.52-.23,20.45a8.19,8.19,0,0,0,1.19,1.39,8.42,8.42,0,0,0,2,1.41c3.48,1.73,8.66,1.54,15.72-.58s11.6-4.79,14-8.17a10.4,10.4,0,0,0,1.48-3,9.13,9.13,0,0,0,.29-1.23c1.11-6.32-4-12.68-8.18-17.86-1.76-2.16-4.68-5.8-4.45-6.77l.13-.1c7.94-5.06,19.14,6,29,15.77,2.05,2,4,4,6,5.76l.48.44a10.06,10.06,0,0,0,7.58,2.6l.79-.06,1.05-.08c7.57-.56,16.33-.94,26.18-.94a439.44,439.44,0,0,1,96.38,11.14A1,1,0,0,1,427.63,129.57Z"/><path class="fd5259d4-44ea-494f-b6e7-88c1a471acbc" d="M230.34,143.16a3.78,3.78,0,0,0-3,.19,3.87,3.87,0,0,0,2.82,7.17,3.75,3.75,0,0,0,.6-.24,3.86,3.86,0,0,0,1.76-5.17A3.83,3.83,0,0,0,230.34,143.16Z"/><path class="fd5259d4-44ea-494f-b6e7-88c1a471acbc" d="M287.31,128.51a3.83,3.83,0,0,0-2.95.2,3.79,3.79,0,0,0-1.95,2.22,3.86,3.86,0,0,0,4.76,4.94,4.49,4.49,0,0,0,.61-.23,3.85,3.85,0,0,0,1.94-2.23,3.79,3.79,0,0,0-.19-2.95A3.85,3.85,0,0,0,287.31,128.51Z"/></svg>