<svg id="b096d535-36f3-4d4f-b293-1f5e3adb819e" data-name="Calque 1" xmlns="http://www.w3.org/2000/svg" viewBox="0 0 500 500"><defs><style>.f183c8f4-df0c-4fdc-bad8-6303f1ed86bd{fill:#0d9aa6;}.b284471d-c396-4925-86d4-e64af4185ce7{fill:#fff;}</style></defs><rect class="f183c8f4-df0c-4fdc-bad8-6303f1ed86bd" x="0.11" y="0.89" width="499" height="499"/><path class="b284471d-c396-4925-86d4-e64af4185ce7" d="M90.52,238.12q0,26,.53,32.89h6a6.2,6.2,0,0,1,.63,2.78,2.33,2.33,0,0,1-.54,1.8,3.46,3.46,0,0,1-2.12.47H76.25a8,8,0,0,1-.64-3,2.09,2.09,0,0,1,.55-1.57,2.72,2.72,0,0,1,1.89-.52h2.21q.51-7.83.52-25.64,0-12-2.73-15.87t-8.65-3.91a13.77,13.77,0,0,0-8,2.87q-4,2.86-4,9.66v12.47q0,11.71.46,20.42h4.94a6.75,6.75,0,0,1,.58,2.78,2.29,2.29,0,0,1-.56,1.8,3.29,3.29,0,0,1-2.06.47H41.27a8.48,8.48,0,0,1-.58-3,2.06,2.06,0,0,1,.55-1.57,2.62,2.62,0,0,1,1.83-.52H47q.47-9,.47-24,0-17.58-1.22-20.16c-.81-1.72-2.46-2.58-4.93-2.58a6.45,6.45,0,0,1-.64-2.84,1.58,1.58,0,0,1,1.07-1.66q1.08-.37,13.61-.72a33.7,33.7,0,0,1,0,6.84A47.66,47.66,0,0,1,66,220.36a29.55,29.55,0,0,1,9.89-1.85q5.75,0,8.85,2.11a10.31,10.31,0,0,1,4.15,5.26,42,42,0,0,1,10.38-5.54,29.36,29.36,0,0,1,9.81-1.83q6.9,0,10.79,3.51t3.88,13.2q0,32.47.84,34.16c.57,1.13,1.89,1.67,4,1.63a8.3,8.3,0,0,1,.52,2.84,1.85,1.85,0,0,1-.78,1.77,6.89,6.89,0,0,1-3,.44q-7.36,0-8.85-.15a2.59,2.59,0,0,1-2-.93,4.64,4.64,0,0,1-.52-2.52V245.37q0-12-2.7-15.87t-8.61-3.91a13.85,13.85,0,0,0-8.1,2.87Q90.53,231.33,90.52,238.12Z"/><path class="b284471d-c396-4925-86d4-e64af4185ce7" d="M167.45,218.1q10.14,0,15.26,4.93t5.16,16.54c0,3.24-.54,5.48-1.63,6.7s-3.5,1.82-7.25,1.82H151.55q.06,10.28,3.95,16.19t13.75,5.92a29.22,29.22,0,0,0,16.06-4.47,6.54,6.54,0,0,1,2.27,4.7q0,3.6-6.27,5.05a61.33,61.33,0,0,1-13.75,1.45q-14.38,0-20.56-6.3t-6.18-21.2q0-14.44,6.9-22.89T167.45,218.1Zm-2.21,6.73q-6.44,0-9.83,4.47t-3.8,13.34H159q11,0,14.41-.38c2.3-.25,3.64-.66,4-1.24a7.25,7.25,0,0,0,.55-3.43q0-5.91-3.22-9.34T165.24,224.83Z"/><path class="b284471d-c396-4925-86d4-e64af4185ce7" d="M249.48,238.12q0,26,.52,32.89h6a6.08,6.08,0,0,1,.64,2.78,2.29,2.29,0,0,1-.55,1.8,3.46,3.46,0,0,1-2.12.47H235.2a8,8,0,0,1-.63-3,2.06,2.06,0,0,1,.55-1.57A2.7,2.7,0,0,1,237,271h2.2q.53-7.83.52-25.64,0-12-2.72-15.87t-8.65-3.91a13.73,13.73,0,0,0-8,2.87q-4,2.86-4,9.66v12.47q0,11.71.47,20.42h4.93a6.59,6.59,0,0,1,.58,2.78,2.33,2.33,0,0,1-.55,1.8,3.33,3.33,0,0,1-2.06.47H200.23a8.48,8.48,0,0,1-.58-3,2.06,2.06,0,0,1,.55-1.57A2.57,2.57,0,0,1,202,271H206q.47-9,.46-24,0-17.58-1.22-20.16t-4.93-2.58a6.58,6.58,0,0,1-.63-2.84,1.57,1.57,0,0,1,1.07-1.66q1.07-.37,13.6-.72a33.7,33.7,0,0,1,0,6.84A47.71,47.71,0,0,1,225,220.36a29.51,29.51,0,0,1,9.89-1.85c3.83,0,6.77.7,8.84,2.11a10.25,10.25,0,0,1,4.15,5.26,41.91,41.91,0,0,1,10.39-5.54,29.35,29.35,0,0,1,9.8-1.83q6.9,0,10.79,3.51t3.89,13.2q0,32.47.84,34.16c.56,1.13,1.88,1.67,4,1.63a8.32,8.32,0,0,1,.53,2.84,1.85,1.85,0,0,1-.79,1.77,6.89,6.89,0,0,1-3,.44q-7.36,0-8.84-.15a2.57,2.57,0,0,1-2-.93,4.63,4.63,0,0,1-.53-2.52V245.37q0-12-2.69-15.87t-8.62-3.91a13.83,13.83,0,0,0-8.09,2.87Q249.48,231.33,249.48,238.12Z"/><path class="b284471d-c396-4925-86d4-e64af4185ce7" d="M323.38,277.22q-12.35,0-18-6.62t-5.63-20.42q0-15.13,6.79-23.61t19.9-8.47q12.36,0,18,6.61t5.6,20.37q0,15.19-6.79,23.67T323.38,277.22Zm1.92-6.73q7.54,0,10.79-5.57t3.25-15.78q0-12-3.25-18.16t-11.6-6.15q-7.55,0-10.79,5.57t-3.25,15.78q0,12,3.28,18.16T325.3,270.49Z"/><path class="b284471d-c396-4925-86d4-e64af4185ce7" d="M361.67,221.47a1.58,1.58,0,0,1,1.08-1.66q1.06-.37,13.6-.72a37.66,37.66,0,0,1,0,7.25,39.37,39.37,0,0,1,23-7.83,4.19,4.19,0,0,1,1.92.29c.31.19.46.64.46,1.33a17.92,17.92,0,0,1-.7,4.76c-.46,1.7-1,2.77-1.65,3.22a8.15,8.15,0,0,1-3.25,1,7.3,7.3,0,0,1-2.72.15A14,14,0,0,1,391,226.4a13,13,0,0,0-9.17,3.33q-3.6,3.35-3.6,11.92.06,20.65.53,29.36h7.71a6.59,6.59,0,0,1,.58,2.78,2.29,2.29,0,0,1-.55,1.8,3.31,3.31,0,0,1-2.06.47H362.25a8.72,8.72,0,0,1-.58-3,2.09,2.09,0,0,1,.55-1.57,2.62,2.62,0,0,1,1.83-.52H368q.45-8.7.46-24,0-17.58-1.22-20.16t-4.93-2.58A6.59,6.59,0,0,1,361.67,221.47Z"/><path class="b284471d-c396-4925-86d4-e64af4185ce7" d="M455.07,225.06q-3.24,10.27-11.69,37.19T431.14,294a17.18,17.18,0,0,1-8.44,6.21A37.34,37.34,0,0,1,412,301.58c-3.83,0-6.29-.25-7.4-.75a2.94,2.94,0,0,1-1.65-3,7.67,7.67,0,0,1,1.8-5q10.15,2,15.14,1.36t10.33-17.43a9.54,9.54,0,0,1-3.08-.61q-.23-.26-6.47-20t-7.8-24a36.54,36.54,0,0,0-2.49-5.8,3.75,3.75,0,0,0-2.24-1.8,12.78,12.78,0,0,0-3-.32,8.11,8.11,0,0,1-.65-3,1.86,1.86,0,0,1,1.81-1.94,46.53,46.53,0,0,1,6.9-.32,20.44,20.44,0,0,1,5.6.49,3.4,3.4,0,0,1,2,1.77,42.22,42.22,0,0,1,1.74,6.82q1.13,5.54,6.09,22.59T434,267.82q.43,0,5.43-18.45t5.74-24.31h-3.13a8.4,8.4,0,0,1-.58-3.07,2.79,2.79,0,0,1,.55-2,2.69,2.69,0,0,1,1.88-.52h14.8a8.46,8.46,0,0,1,.58,3.13,2.44,2.44,0,0,1-.64,2,3.55,3.55,0,0,1-2.21.52Z"/><path class="b284471d-c396-4925-86d4-e64af4185ce7" d="M52.35,298.46q5.91,0,8.88,3,.12.19.24.36a2.26,2.26,0,0,1,.27,1.06,2.07,2.07,0,0,1-.27,1,2,2,0,0,1-.76.77,1.94,1.94,0,0,1-2,0,1.3,1.3,0,0,1-.39-.28c-1.35-1.29-3.33-1.93-6-1.93q-7.91,0-7.9,7.9t7.9,7.89c2.63,0,4.6-.65,5.92-2l.39-.24a2.22,2.22,0,0,1,1-.28,2,2,0,0,1,1,.28,2.08,2.08,0,0,1,1,1.78,2.06,2.06,0,0,1-.27,1l-.24.39c-2,2-4.94,3-8.88,3q-11.85,0-11.85-11.84t11.85-11.85Z"/><path class="b284471d-c396-4925-86d4-e64af4185ce7" d="M76.55,302.41q-7.81,0-7.9,7.9c.06,5.23,2.69,7.87,7.9,7.89s8-2.66,7.9-7.89-2.58-7.93-7.9-7.9Zm-.72-4q11.2,0,11.21,12,0,11.64-11.21,11.68a11.84,11.84,0,0,1-7.48-2.25v32.38a2.19,2.19,0,0,1-.11.67,1.88,1.88,0,0,1-1.06,1.16,1.73,1.73,0,0,1-.7.15,1.9,1.9,0,0,1-.92-.25,1.71,1.71,0,0,1-.71-.75,2.12,2.12,0,0,1-.24-1v-42q0-11.85,11.22-11.85Z"/><path class="b284471d-c396-4925-86d4-e64af4185ce7" d="M96.65,320.23a1.9,1.9,0,0,1-.09.58A1.93,1.93,0,0,1,95.48,322a1.89,1.89,0,0,1-.7.13,2,2,0,0,1-.94-.24,1.82,1.82,0,0,1-.74-.79,1.91,1.91,0,0,1-.19-.84v-9.88a11.82,11.82,0,0,1,11.76-11.84q11.73,0,11.73,11.75v10a1.9,1.9,0,0,1-.09.58,1.82,1.82,0,0,1-1.07,1.15,1.9,1.9,0,0,1-.7.14,1.93,1.93,0,0,1-1.19-.41,1.22,1.22,0,0,1-.32-.32,2,2,0,0,1-.36-1.14v-10a7.86,7.86,0,0,0-7.59-7.89q-8.43-.21-8.43,8v9.87Z"/><path class="b284471d-c396-4925-86d4-e64af4185ce7" d="M142.07,298.34c0,7.84-9.65,23.5-17.12,23.5h-3.74V300.28a2.17,2.17,0,0,1,.14-.75,1.87,1.87,0,0,1,1-1.07,1.72,1.72,0,0,1,.7-.14,1.84,1.84,0,0,1,.69.13,2,2,0,0,1,1,1.08,2.12,2.12,0,0,1,.14.75v17.64c5,0,13.38-14.35,13.38-19.58Z"/></svg>