<svg id="bc529ca5-494b-407d-9804-8741a351013f" data-name="Calque 1" xmlns="http://www.w3.org/2000/svg" xmlns:xlink="http://www.w3.org/1999/xlink" viewBox="0 0 500 500"><defs><style>.b5ac12e2-b30b-4ee4-b9dd-950a6f151cbe{fill:url(#a122a428-30a8-452f-8379-c3c58edc2009);}.b28feef0-024a-4a18-ad80-5036603251d3,.bb1ddf89-93ca-458c-b04c-80473b670036{fill:#fff;}.b28feef0-024a-4a18-ad80-5036603251d3{stroke:#fff;stroke-miterlimit:10;stroke-width:3.5px;}</style><linearGradient id="a122a428-30a8-452f-8379-c3c58edc2009" x1="79.35" y1="-45.86" x2="420.86" y2="545.65" gradientUnits="userSpaceOnUse"><stop offset="0" stop-color="#29abe2"/><stop offset="0.35" stop-color="#1791d1"/><stop offset="0.75" stop-color="#067ac2"/><stop offset="1" stop-color="#0071bc"/></linearGradient></defs><rect class="b5ac12e2-b30b-4ee4-b9dd-950a6f151cbe" x="0.11" y="-0.11" width="500" height="500"/><circle class="b28feef0-024a-4a18-ad80-5036603251d3" cx="342.6" cy="150.39" r="9.52"/><path class="bb1ddf89-93ca-458c-b04c-80473b670036" d="M425.62,162.29c-5.92-15.49-17.76-27.26-31.86-35.6a135.25,135.25,0,0,0-35.35-14.18,133.67,133.67,0,0,0-14.55-3,149.81,149.81,0,0,0-38.49-.25,193.75,193.75,0,0,0-59.94,17.53c-2.77,1.3-5.51,2.68-8.22,4.1l2.7-.73A286.11,286.11,0,0,0,141.68,142c-7.28,2.2-14.47,4.7-21.57,7.45a5.44,5.44,0,0,0-3.84,4.45,5.35,5.35,0,0,0,2.56,5.34l64.44,34.65-1.92-7.33c-4.93,9.66-9.48,19.52-13.86,29.43-8,18.15-15.79,36.77-20.52,56.08a111.6,111.6,0,0,0-2.45,13.33c-.14,1.12-.24,2.25-.27,3.38a4.5,4.5,0,0,0-.07,1.25c-.19-.36.3-1.5,0-.47-.09.34-.19.7-.27,1-.25,1.22.48-.71.06,0-.19.3-.39.65-.55,1-.31.62.88-.78-.11,0-.37.31-.46.18.36-.23-.24.12-.47.3-.7.44-.94.6.8-.11-.41.14-.44.1-1.49.19-.45.14-.19,0-2,0-1.14.1-1-.11-1.94-.38-2.9-.56q-10.45-2-21-3.1a268.65,268.65,0,0,0-45.29-1.15q-9.87.6-19.69,1.9l-2.8.38c-1.22.17-.51-.12,0,0a3.2,3.2,0,0,0-.81.06,27.1,27.1,0,0,0-4.39.69c-4.35,1.13-8.4,4.12-8.68,8.94-.27,4.5,2.92,9,6.37,11.57,5.15,3.84,10.5,7.45,15.86,11a333,333,0,0,0,30.77,18.36c2.76,1.42,5.54,2.79,8.37,4.07a32.09,32.09,0,0,0,4.51,2l1.43.19-1.42-.19h0s.08,0,.11,0a5.69,5.69,0,0,0,.86.22c.23.08.45.18.68.25.79.22-1.23-.6-.77-.33.14.08.3.13.44.2a20.7,20.7,0,0,1,2.13,1.24c.19.13.38.28.58.41.82.55-1-.83-.41-.32s1,.81,1.41,1.24.83.83,1.22,1.26c.23.25.45.5.67.76l.33.4c.65.76-.15-.33-.25-.34.34.05,1.14,1.6,1.34,1.9.47.72.92,1.46,1.34,2.21s.9,1.66,1.3,2.51c.22.46.43.93.64,1.39.11.24.38.94-.07-.18.13.31.26.63.38.95a65,65,0,0,1,2.34,7.2c.75,2.84,1.35,5.73,1.83,8.64a42.63,42.63,0,0,1,.87,7c0,2.53-.22,5.11-.3,7.64-.15,4.48-.24,9-.23,13.45a94.08,94.08,0,0,0,.72,13.32c0,.29.08.59.13.89.13.7-.09-1.62-.12-1a9.07,9.07,0,0,0,.06,1,37.1,37.1,0,0,0,.67,4.81c1,4.52,4.36,9.3,9.65,8a10.58,10.58,0,0,0,5.64-3.88,19.75,19.75,0,0,0,1.73-2.3s-.56.74-.5.59.14-.15.18-.24c.72-1.45,2.26-2.92,3.25-4.25,1.6-2.17,3.16-4.37,4.7-6.59a376.55,376.55,0,0,0,32.26-57q4.74-10.32,8.88-20.9l-6.59,3.74A180.26,180.26,0,0,0,201,343.22a254.06,254.06,0,0,0,51.65-1.15,228.57,228.57,0,0,0,37.15-7.68L284.59,333l.34.34c.76.67-.3-.72.15.15,0-.05.47.79.45.79s-.19-.91-.19-.81.21-1.3.17-.77c-.06.82-.28,1.65-.41,2.46l-1.67,9.9c-.48,2.82-1,5.64-1.43,8.47a2.16,2.16,0,0,0-.11.65c.1.51.73-1.68.5-1.16s-.46,1-.67,1.57a9.42,9.42,0,0,0-.52,5.55,7.14,7.14,0,0,0,6.73,5.42c2.62.13,4.95-.94,7.32-1.88,5.09-2.05,10.11-4.28,15-6.75A176,176,0,0,0,344,334.64c18.52-15.54,32.32-35.19,43.89-56.24,6.15-11.18,12-22.52,17.88-33.87,5.24-10.15,10.34-20.37,14.74-30.92,6.08-14.58,10.7-30.66,6.7-46.42a49.73,49.73,0,0,0-1.55-4.9c-1-2.71-3.62-4.55-6.59-3.74-2.6.72-4.75,3.87-3.74,6.59a46.27,46.27,0,0,1,2,6.7c.11.5.2,1,.29,1.49,0,.33.1.66.16,1,.09.49.31.51-.06-.42a12.2,12.2,0,0,1,.31,3.53,50.89,50.89,0,0,1-.18,7.09c0,.53-.13,1.07-.17,1.6-.06.8.22-1.38,0-.16,0,.24-.07.48-.11.72-.21,1.36-.46,2.72-.76,4.06a106.46,106.46,0,0,1-5,16.07c-.57,1.47-1.17,2.94-1.78,4.4.4-1-.41.95-.53,1.22-.37.85-.75,1.7-1.13,2.55-1.47,3.29-3,6.55-4.59,9.79-7.5,15.43-15.54,30.63-23.72,45.7-7.25,13.35-15.37,26.78-24.85,37.95a158.26,158.26,0,0,1-40.3,33.81,171.42,171.42,0,0,1-20.57,10.37c.9-.38-.08,0-.31.12l-1.11.46-2.17.86c-.62.24-1.25.46-1.86.71s-.93-.15-.17.12c-1-.37,1.25.5,1.21.47a7.84,7.84,0,0,1,1.76,2.28c-.18-.63.1,1.57.09.65,0-.77-.07.69-.11.72s.12-.56.16-.66a4.36,4.36,0,0,0,.3-.88,6.36,6.36,0,0,0-.41,1,10.57,10.57,0,0,0,.57-1.34c.81-3.07,1.08-6.4,1.61-9.54.66-3.91,1.35-7.82,2-11.73a11.3,11.3,0,0,0-2.78-9.46,5.9,5.9,0,0,0-5.35-2.4c-2.63.31-5.32,1.45-7.89,2.12a216.59,216.59,0,0,1-27.12,5.28,254.45,254.45,0,0,1-47.15,1.46c-5.25-.32-10.49-.79-15.7-1.46l-.62-.08c-.76-.09-.7-.44.26,0a4.77,4.77,0,0,0-1.37-.19c-.79-.12-1.59-.23-2.38-.36-1.09-.17-2.18-.35-3.27-.55L181.3,330a5.54,5.54,0,0,0-6.59,3.74,380.28,380.28,0,0,1-30.17,60.18c-3.71,6-7.58,11.94-11.66,17.71-1.2,1.7-2.43,3.39-3.68,5.05l-1.12,1.49c-.52.68,1-1.34.41-.54a3.25,3.25,0,0,1-.23.29.94.94,0,0,1-.09.12c-.45.58-.88,1.17-1.3,1.77l-.45.63c.42-.55.18-.22-.14.1-.1.1-.77.9-.89.85.07,0,1.09-.71.18-.24a3.78,3.78,0,0,1,3.86.24c.19.14.86,1.06.75.78a3.15,3.15,0,0,0-.36-.68c0-.05.41,1.31.15.29-.08-.33-.19-.65-.27-1-.13-.54-.22-1.08-.32-1.62-.23-1.15.11,1.18,0,.37,0-.28-.06-.56-.09-.84-.05-.51-.06-1-.1-1.52a20.09,20.09,0,0,0-.3-2c-.2-1.08.11,1.17,0,.23s-.15-1.58-.21-2.37c-.26-3.86-.27-7.73-.24-11.6,0-6.09.51-12.19.52-18.28a41.78,41.78,0,0,0-.6-5.57c-.4-3-.87-6-1.5-9a73,73,0,0,0-4.12-13.26c-2.31-5.47-5.47-10.91-10.11-14.74a20.32,20.32,0,0,0-8.25-4.52c-.56-.12-1.14-.17-1.7-.25l2.7.74c-12.28-5.25-23.89-12-35.14-19.17q-11.28-7.15-22.11-15c-.28-.2-.57-.39-.83-.6-.5-.41,0-.17,0,0l.34.2q-.37-.39-.72-.81c-.14-.16-.59-.85,0-.06-.31-.45-.57-.92-.86-1.38-.48-.78.1.17.13.34,0-.19-.14-.38-.17-.58-.14-1,.1,1.2.07.5,0-.89-.08.38-.12.6.23-1.23-.54,1-.07.18-.2.37-.8.87,0,.2-.65.56-.89.56-.13.2a4.25,4.25,0,0,0,.43-.21c.72-.46-1.23.36-.39.17.65-.14,1.28-.39,1.93-.53.32-.06.64-.1,1-.17.73-.16-1.69.15-.35.06,1.51-.1,3.52-.42,4.45-.55,2.57-.34,6.55-.79,9.67-1.09q11.45-1.08,23-1.17a260.31,260.31,0,0,1,47.74,3.94c3.81.68,7.4,1.62,11.27.93a12.36,12.36,0,0,0,7.08-4c2.47-2.89,3.3-6.32,3.41-10,0-.68.1-1.37.17-2.05,0-.45.11-.9.16-1.36s.18-1-.06.39c.06-.36.1-.71.16-1.06.33-2.19.76-4.36,1.23-6.51,1.09-4.91,2.46-9.76,4-14.55,3.29-10.5,7.25-20.79,11.46-30.94l.71-1.7c.11-.28.23-.56.35-.84-.41,1-.09.23,0,0,.55-1.3,1.11-2.6,1.67-3.9q1.49-3.45,3-6.88,2.78-6.24,5.69-12.41c2.21-4.71,4.5-9.38,6.8-14.05.11-.22.22-.44.34-.66,1.27-2.51.74-5.9-1.93-7.33L124.24,150,123,159.82a283,283,0,0,1,79.55-18.53q12.08-1,24.21-.86,5.92,0,11.84.35a7.84,7.84,0,0,0,4.05-.66c.9-.42,1.77-.92,2.66-1.37,1.95-1,3.91-2,5.89-2.89a185.5,185.5,0,0,1,40-13.51q4.5-1,9.05-1.68l2.05-.31,1-.15c.87-.13-.79.1.08,0,1.46-.19,2.93-.37,4.4-.52,4.92-.51,9.87-.81,14.82-.86,4.08,0,8.16.08,12.23.39,1.65.12,3.3.28,4.95.47l1,.12c.89.11.68.15-.19,0,.67.14,1.37.19,2,.3a144.84,144.84,0,0,1,25.53,6.59q3,1.08,6,2.28l1.47.61c-1.25-.52.25.11.57.25,1.13.5,2.26,1,3.37,1.54a104,104,0,0,1,12.79,7.17c1,.65,2,1.33,2.92,2,.48.35,1,.7,1.43,1.06.18.13.8.62,0,0l.87.7a72.66,72.66,0,0,1,5.71,5.1c.86.85,1.7,1.73,2.5,2.63.41.45.81.91,1.2,1.37.25.29.49.58.73.88l.43.53.28.36.54.74c.36.5.72,1,1.06,1.51.73,1.09,1.43,2.2,2.08,3.34s1.29,2.33,1.86,3.53c.27.57.53,1.14.79,1.72.34.76-.29-.74,0,0,.15.37.3.75.44,1.12,1,2.7,3.61,4.56,6.59,3.74C424.47,168.17,426.66,165,425.62,162.29Z"/><path class="bb1ddf89-93ca-458c-b04c-80473b670036" d="M395.86,202a152.07,152.07,0,0,1,24.61.51c2.54.25,5-2.42,4.86-4.86a5,5,0,0,0-4.86-4.85,152.07,152.07,0,0,0-24.61-.51c-2.53.16-5,2.12-4.85,4.85.11,2.5,2.14,5,4.85,4.86Z"/></svg>