<svg id="a2d1bff1-9251-4ff4-8b89-f306159fe900" data-name="Calque 1" xmlns="http://www.w3.org/2000/svg" xmlns:xlink="http://www.w3.org/1999/xlink" viewBox="0 0 500 500"><defs><style>.b27f2346-b003-4a1e-bedf-82c2a86c694c{fill:url(#eb26c2f5-07f1-4542-ade4-e28350ae48ad);}.ece2a4e6-2bd2-4727-9f9a-90893ff6a8ab{fill:#fff;}</style><linearGradient id="eb26c2f5-07f1-4542-ade4-e28350ae48ad" x1="79.19" y1="-44.77" x2="420.02" y2="545.56" gradientUnits="userSpaceOnUse"><stop offset="0" stop-color="#29abe2"/><stop offset="0.35" stop-color="#1791d1"/><stop offset="0.75" stop-color="#067ac2"/><stop offset="1" stop-color="#0071bc"/></linearGradient></defs><rect class="b27f2346-b003-4a1e-bedf-82c2a86c694c" x="0.11" y="0.89" width="499" height="499"/><path class="ece2a4e6-2bd2-4727-9f9a-90893ff6a8ab" d="M421.59,250.27l-63.5-5.07,63.19-8-.34-4.53-63.68,1.48,62-14.5-.81-4.47-63.19,8,60.21-20.8L414.24,198l-62,14.48L410,185.58l-1.71-4.21L348,202.15l54.69-32.68-2.13-4-57.76,26.87,51-38.13-2.53-3.78-54.69,32.66,46.84-43.17-2.9-3.5-51.05,38.11,42.16-47.76-3.25-3.18-46.86,43.16,37-51.84-3.55-2.83-42.18,47.75,31.5-55.38L340.54,102l-37,51.83,25.63-58.32-4.06-2-31.51,55.37,19.5-60.65-4.25-1.61-25.65,58.31,13.16-62.33-4.39-1.17L272.41,142l6.68-63.35L274.6,78l-13.18,62.33.13-63.71L257,76.33l-6.7,63.34L243.89,76.3l-4.54.22-.15,63.7L226.3,77.84l-4.5.69,6.4,63.38L209,81.18l-4.39,1.15,12.87,62.39L192.05,86.29l-4.26,1.59L207,148.62,175.75,93.11l-4.07,2,25.37,58.44-36.8-52L156.41,104l31.24,55.52-42-47.94-3.57,2.81,36.78,52L132.25,123,129,126.2l41.93,48-50.87-38.34-2.92,3.48,46.65,43.39-54.55-32.91-2.54,3.76,50.86,38.37L99.91,164.77l-2.15,4L152.3,201.7l-60.13-21-1.72,4.2L148.08,212l-62-14.76-1.28,4.36L145,222.67l-63.16-8.31L81,218.83l62,14.78-63.68-1.77-.36,4.53L142,244.71l-63.52,4.78.11,4.54,63.67,1.8L79.61,267.12l.57,4.5,63.53-4.76-61.2,17.68,1,4.43,62.7-11.27L87.18,301.57l1.48,4.3,61.21-17.66L93.58,318l1.91,4.12,59.07-23.86-52.92,35.45,2.33,3.9,56.3-29.8-49,40.71L114,352.2l52.94-35.43-44.56,45.52,3.08,3.35,49-40.69-39.64,49.87,3.41,3,44.57-45.51L148.5,386l3.7,2.64,39.66-49.85-28.6,56.92,4,2.25,34.32-53.67-22.6,59.56,4.16,1.83,28.62-56.91-16.35,61.57,4.32,1.39,22.62-59.55-9.93,62.92,4.44.94,16.38-61.56-3.42,63.61,4.52.48,10-62.92,3.15,63.62h4.54l3.44-63.61,9.67,63,4.52-.46-3.12-63.63,16.09,61.64,4.45-.92-9.65-63L299.69,412l4.33-1.37L288,348.93,316.31,406l4.17-1.81L298.15,344.5l34.08,53.83,4-2.23L307.85,339l39.43,50,3.71-2.63-34.06-53.83,44.37,45.71,3.42-3-39.42-50,48.83,40.91,3.1-3.32-44.35-45.74,52.78,35.68,2.73-3.63-48.81-40.93,56.16,30.06,2.35-3.89-52.77-35.69,59,24.12,1.93-4.11-56.16-30.08,61.13,17.93,1.51-4.28-59-24.15,62.65,11.55,1.06-4.42-61.13-17.95,63.51,5,.59-4.51-62.64-11.57,63.68-1.51Zm-77.54-7.87c-.06-1.14-.15-2.29-.26-3.43l25.5-.6a.41.41,0,0,1,.06.81Zm-1-9.64c-.18-1.13-.38-2.26-.6-3.38l25.14-3.2a.41.41,0,0,1,.15.81Zm-2-9.48c-.3-1.11-.61-2.22-.95-3.3l25.59-6a.36.36,0,0,1,.2.7Zm-3-9.22c-.41-1.07-.84-2.14-1.28-3.19l24.06-8.3a.4.4,0,0,1,.3.75Zm-3.93-8.86c-.52-1-1.05-2-1.61-3l24.3-11.3a.34.34,0,0,1,.32.59Zm-4.82-8.41q-.93-1.44-1.92-2.85L350.62,180a.31.31,0,0,1,.35.52Zm-5.67-7.86c-.71-.9-1.45-1.79-2.19-2.65l20.54-15.34a.4.4,0,0,1,.51.61Zm-6.44-7.25c-.8-.81-1.62-1.62-2.45-2.4l19.39-17.87a.36.36,0,0,1,.51.5ZM310,175.13c-.88-.72-1.78-1.44-2.69-2.14l16.57-18.76a.43.43,0,0,1,.67.53Zm-7.78-5.78c-.95-.64-1.92-1.26-2.9-1.86l15.62-21.84a.33.33,0,0,1,.56.35Zm-8.33-4.95c-1-.54-2-1.06-3.07-1.55L304,139.7a.34.34,0,0,1,.61.31Zm-8.8-4.07c-1.06-.43-2.14-.84-3.22-1.22l9.71-22.06a.48.48,0,0,1,.89.33Zm-4.19-26.72-5,23.58c-1.1-.31-2.21-.61-3.33-.88L280,133.36A.48.48,0,0,1,280.89,133.61ZM269,131.05l-2.53,24c-1.12-.2-2.26-.38-3.4-.53l5-23.59A.48.48,0,0,1,269,131.05Zm-12.1-1.33-.05,24.12c-1.14-.08-2.29-.14-3.44-.18l2.54-24A.48.48,0,0,1,256.89,129.72Zm-12.17-.08,2.43,24c-1.15,0-2.29.09-3.44.17l.06-24.12A.48.48,0,0,1,244.72,129.64Zm-7.23,24.79c-1.14.15-2.27.32-3.4.52l-2.42-24a.47.47,0,0,1,.93-.14ZM228,156.21c-1.12.27-2.23.55-3.33.86l-4.87-23.6a.47.47,0,0,1,.91-.24Zm-9.3,2.75c-1.08.39-2.16.79-3.22,1.21l-7.27-23a.48.48,0,0,1,.89-.33Zm-9,3.7c-1,.5-2.06,1-3.08,1.54L197,142.08a.47.47,0,0,1,.85-.42Zm-8.53,4.61c-1,.59-1.94,1.21-2.9,1.84l-11.83-21a.48.48,0,0,1,.8-.51Zm-8,5.46q-1.36,1-2.7,2.13l-13.93-19.69a.48.48,0,0,1,.75-.59Zm-7.4,6.25c-.84.79-1.67,1.59-2.47,2.4l-15.88-18.16a.47.47,0,0,1,.68-.66ZM179,186c-.75.86-1.49,1.74-2.21,2.63l-17.67-16.43a.47.47,0,0,1,.61-.72Zm-6,7.62c-.66.94-1.31,1.89-1.93,2.85l-19.25-14.52a.48.48,0,0,1,.53-.79Zm-5.17,8.21c-.56,1-1.11,2-1.63,3l-20.63-12.46a.48.48,0,0,1,.45-.84Zm-4.29,8.69c-.46,1.05-.89,2.11-1.31,3.18l-21.09-9.94a.51.51,0,0,1,.39-.95Zm-3.38,9.09c-.34,1.08-.66,2.19-1,3.3l-22-7.72a.52.52,0,0,1,.29-1ZM157.79,229c-.22,1.12-.43,2.25-.61,3.39l-22.69-5.42a.51.51,0,0,1,.19-1Zm-1.42,9.59c-.11,1.14-.2,2.28-.27,3.43L133,238.92a.52.52,0,0,1,.08-1Zm-.45,9.68c0,1.13,0,2.28.08,3.44L132.68,251a.52.52,0,0,1,0-1Zm.55,9.68c.12,1.14.26,2.28.43,3.41l-21.71,1.63a.6.6,0,0,1-.15-1.18Zm1.53,9.57c.24,1.13.5,2.25.77,3.35l-21.4,3.85a.6.6,0,0,1-.27-1.16Zm2.51,9.37c.35,1.09.73,2.18,1.12,3.25l-20.89,6a.59.59,0,0,1-.39-1.12Zm3.47,9.05c.46,1.05,1,2.09,1.45,3.12l-20.17,8.14a.6.6,0,0,1-.51-1.08Zm4.38,8.65c.57,1,1.16,2,1.77,2.95L150.9,307.67a.6.6,0,0,1-.62-1Zm5.25,8.14c.67.93,1.36,1.85,2.06,2.76l-18.61,12.45a.56.56,0,0,1-.67-.9Zm6.06,7.57c.77.85,1.55,1.7,2.34,2.53l-16.86,14a.59.59,0,0,1-.8-.87Zm6.81,6.9c.84.77,1.7,1.54,2.57,2.28l-15.11,15.44a.61.61,0,0,1-.91-.8Zm7.46,6.18c.92.68,1.86,1.35,2.8,2l-14.31,18a.53.53,0,0,1-.86-.62ZM202,328.7c1,.59,2,1.16,3,1.71l-12.61,19.72a.51.51,0,0,1-.89-.51Zm8.58,4.52c1,.48,2.09.95,3.15,1.39L202.88,356.2a.48.48,0,0,1-.87-.38Zm9,3.61q1.62.56,3.27,1.05l-9.06,23.87a.4.4,0,0,1-.77-.24ZM225,364.51l3.95-25c1.11.25,2.23.49,3.37.7l-6.52,24.49A.41.41,0,0,1,225,364.51Zm12,4.1,1.48-27.45q1.69.21,3.42.36l-4.3,27.16A.3.3,0,0,1,237,368.61Zm12.46-.09-1.31-26.66c1.15,0,2.24,0,3.44,0l-1.44,26.66A.35.35,0,0,1,249.44,368.52Zm.62-31.19c-1.36,0-2.74,0-4.22-.1l-.43,0-.76,0c-2.7-.16-5.39-.44-8-.83l-.26,0-.92-.15c-2.69-.44-5.33-1-7.86-1.65l-.11,0-1-.29c-2.58-.7-5.16-1.53-7.64-2.46l-.55-.2-.57-.22c-2.48-1-4.95-2.05-7.35-3.24l-1-.48-.09-.05c-2.34-1.2-4.68-2.54-7-4l-.53-.33-.48-.32c-2.26-1.47-4.46-3-6.54-4.67l-.11-.09-.81-.65c-2.09-1.69-4.11-3.48-6-5.33l-.52-.5-.33-.33c-1.88-1.86-3.71-3.85-5.44-5.91l-.56-.66-.21-.25c-1.69-2.06-3.31-4.23-4.81-6.44l-.21-.3-.45-.69c-1.49-2.24-2.88-4.56-4.13-6.89l-.2-.36-.36-.69c-1.23-2.37-2.37-4.82-3.39-7.28l-.34-.84-.11-.27c-1-2.45-1.85-5-2.62-7.59l-.25-.85-.08-.3c-.72-2.55-1.33-5.18-1.82-7.82l-.11-.6-.1-.58c-.45-2.63-.79-5.32-1-8l0-.43,0-.76c-.14-2.09-.21-4.15-.21-6.12,0-.64,0-1.28,0-1.91v-.43l0-.76c.09-2.7.3-5.4.62-8l0-.31.12-.87c.37-2.69.86-5.35,1.44-7.9l0-.09.26-1.07c.64-2.62,1.4-5.21,2.25-7.71l.14-.41.26-.71c.9-2.51,1.92-5,3.05-7.44l.39-.86.11-.22c1.14-2.37,2.42-4.75,3.8-7.07l.38-.64.24-.38c1.4-2.29,2.92-4.53,4.5-6.66l.15-.19.57-.76c1.64-2.13,3.37-4.2,5.17-6.15l.38-.42.43-.45c1.82-1.94,3.76-3.82,5.77-5.6l.74-.66.15-.13c2-1.73,4.13-3.4,6.31-5l.39-.28.58-.41c2.22-1.55,4.5-3,6.79-4.31l.21-.12.83-.46c2.33-1.3,4.75-2.5,7.19-3.58l.73-.33.36-.15c2.43-1,5-2,7.52-2.81l.92-.3.22-.07c2.52-.78,5.13-1.45,7.78-2L232,160l.54-.11c2.62-.52,5.29-.92,8-1.21l.45,0,.73-.07c2.67-.25,5.37-.38,8-.39h1.19c2.7,0,5.4.17,8,.42l.35,0,.83.09c2.7.3,5.37.72,7.94,1.24l.15,0,1,.22c2.64.57,5.26,1.27,7.77,2.06l.33.1.81.26c2.53.84,5.06,1.8,7.5,2.86l.74.31.36.16c2.41,1.08,4.82,2.3,7.17,3.62l.77.43.27.16c2.3,1.33,4.58,2.79,6.76,4.33l.28.2.69.5c2.18,1.58,4.29,3.26,6.29,5l.3.26.59.53c2,1.78,3.91,3.67,5.74,5.62l.71.77.1.11c1.78,1.95,3.5,4,5.14,6.18l.39.51.32.44c1.61,2.18,3.12,4.43,4.48,6.67l.06.09.55.94c1.36,2.31,2.63,4.7,3.76,7.09l.28.6.23.48c1.1,2.41,2.11,4.92,3,7.45l.34,1,0,.15c.84,2.49,1.59,5.08,2.22,7.72l.18.73.09.43c.59,2.6,1.06,5.26,1.42,7.91l.07.53.07.65c.32,2.66.52,5.36.6,8v.31l0,1.11c0,.42,0,.85,0,1.27,0,2.14-.08,4.33-.23,6.53l0,.39-.07.8c-.23,2.69-.58,5.37-1,8l0,.26-.18.91c-.5,2.66-1.13,5.29-1.85,7.81l-.06.22-.28.93c-.77,2.56-1.66,5.12-2.65,7.58l-.25.62-.2.48c-1,2.45-2.18,4.89-3.43,7.27l-.44.83-.12.22c-1.27,2.33-2.67,4.64-4.16,6.87l-.27.41-.4.58c-1.53,2.23-3.16,4.38-4.84,6.42L319,305l-.61.71c-1.73,2-3.57,4-5.47,5.89l-.66.65-.2.18c-1.9,1.83-3.94,3.61-6,5.29l-.63.5-.31.24c-2.12,1.65-4.32,3.21-6.55,4.65l-.2.13-.81.5c-2.28,1.43-4.63,2.76-7,3.95l-.41.21-.66.32c-2.38,1.17-4.86,2.25-7.36,3.21l-1,.37-.12.05c-2.46.9-5,1.72-7.66,2.42l-.75.2-.4.1c-2.58.65-5.23,1.2-7.87,1.62l-.58.09-.6.09c-2.65.38-5.34.65-8,.8l-.42,0-.76,0C252.48,337.3,251.23,337.33,250.06,337.33Zm7.75,4.23c1.14-.1,2.29-.21,3.43-.35l1.28,26.22a.36.36,0,0,1-.72.07Zm9.61-1.29c1.13-.21,2.26-.44,3.37-.69l3.88,25.31a.4.4,0,0,1-.78.17Zm9.43-2.27c1.1-.32,2.2-.67,3.28-1l6.47,24.83a.39.39,0,0,1-.75.23Zm9.14-3.23c1.06-.44,2.11-.9,3.15-1.37l8.92,23.85a.4.4,0,0,1-.74.32Zm8.75-4.16c1-.54,2-1.11,3-1.69l11.06,22.27a.44.44,0,0,1-.76.43Zm8.28-5c1-.64,1.88-1.31,2.81-2l13.39,21.17a.43.43,0,0,1-.7.49Zm7.72-5.86c.88-.74,1.74-1.5,2.59-2.27L329.51,338a.37.37,0,0,1-.56.49Zm7.08-6.62q1.19-1.24,2.34-2.52L338,328.92a.4.4,0,0,1-.55.58Zm6.36-7.31c.71-.9,1.4-1.82,2.07-2.75l18.69,15.66a.46.46,0,0,1-.56.74Zm5.58-7.93c.62-1,1.21-2,1.79-2.94l20.31,13.74a.45.45,0,0,1-.47.77Zm4.74-8.46c.51-1,1-2.07,1.47-3.11l21.68,11.61a.45.45,0,0,1-.38.82Zm3.84-8.9c.4-1.07.78-2.15,1.14-3.25L361,286a.52.52,0,0,1-.35,1Zm2.9-9.25c.28-1.1.55-2.22.79-3.35l21.84,6.42a.55.55,0,0,1-.26,1.06Zm1.92-9.5c.17-1.13.32-2.27.45-3.41l23.31,4.3a.5.5,0,0,1-.13,1Zm.94-9.65c0-1.15.09-2.3.1-3.44l24.93,2a.43.43,0,0,1,0,.86Z"/></svg>