<svg id="fa461fd1-8fac-4a11-bfdb-4891a926bc6c" data-name="Calque 1" xmlns="http://www.w3.org/2000/svg" xmlns:xlink="http://www.w3.org/1999/xlink" viewBox="0 0 500 500"><defs><style>.b05818fe-441b-49fb-a714-c18c76316147{fill:url(#e54879cb-d2cf-4b3c-a4d7-b2a5d7dd7755);}.a2fceb5e-f29d-4880-a84c-8ae0d1e2d948,.f46b75eb-74df-40b9-90ce-35a42ac44bf9{fill:#fff;}.f46b75eb-74df-40b9-90ce-35a42ac44bf9{stroke:#fff;stroke-miterlimit:10;stroke-width:3.5px;}</style><linearGradient id="e54879cb-d2cf-4b3c-a4d7-b2a5d7dd7755" x1="79.35" y1="-45.86" x2="420.86" y2="545.65" gradientUnits="userSpaceOnUse"><stop offset="0" stop-color="#29abe2"/><stop offset="0.35" stop-color="#1791d1"/><stop offset="0.75" stop-color="#067ac2"/><stop offset="1" stop-color="#0071bc"/></linearGradient></defs><rect class="b05818fe-441b-49fb-a714-c18c76316147" x="0.11" y="-0.11" width="500" height="500"/><circle class="f46b75eb-74df-40b9-90ce-35a42ac44bf9" cx="296.53" cy="146.32" r="9.52"/><circle class="f46b75eb-74df-40b9-90ce-35a42ac44bf9" cx="244.15" cy="148.7" r="9.52"/><path class="a2fceb5e-f29d-4880-a84c-8ae0d1e2d948" d="M471.77,328.59A27.24,27.24,0,0,1,447,321.41a42.33,42.33,0,0,1-6.18-7.62,47.82,47.82,0,0,1-3.83-7c-2.12-5.39-2.63-11.06-3.36-16.6-1.39-10.46-3.45-20.76-5.83-31-4.05-17.56-11.63-37.16-28.72-45.76-14.43-7.26-31.63-6.68-47.08-3.59a98.53,98.53,0,0,0-45.63,22.65l5.6,4.33a189.28,189.28,0,0,0,14-42.54c2.73-13.7,5.09-27.68,5.65-41.66.59-14.41-1-29.08-7-42.32-6.1-13.46-17-24.13-29.83-31.24-13.65-7.55-29.59-11.29-45.14-9.24a63.29,63.29,0,0,0-38.85,20.74,78.92,78.92,0,0,0-14.89,24.79c-4,10.51-4,22.39-3.08,33.42a127.83,127.83,0,0,0,10.88,41.71c2.15,4.7,4.76,9.09,6.29,14a73.09,73.09,0,0,1,3,24.38,80.82,80.82,0,0,1-.9,9.44l3.44-2.62a151.06,151.06,0,0,1-50.69-2.79c-7.85-1.75-15.62-4.46-22.08-9.37a40.72,40.72,0,0,1-14.19-21.31c-1.2-4.17-.77-8.53-.5-12.83a124.44,124.44,0,0,1,2-15.75,139.26,139.26,0,0,1,7.6-25.45,44.67,44.67,0,0,0-8-45.83,61.52,61.52,0,0,0-25.28-17.21c-3.84-1.37-6.25,4.59-2.76,6.53.21.12.4.26.6.39.81.52-.45-.46,0,0,.29.29.62.54.92.82s.63.63.93,1l.48.57a2.75,2.75,0,0,1,.22.26c.5.6-.34-.46-.06-.07A23.55,23.55,0,0,1,106.93,98a8.74,8.74,0,0,1,.66,1.54c.32.91.61,1.83.85,2.77a26.1,26.1,0,0,1,.81,5.59,52.88,52.88,0,0,1-2.36,17.26,41.43,41.43,0,0,1-3.5,9.42c-1.23,2.13-2.36,4.33-3.43,6.55a128.35,128.35,0,0,0-9.43,26.69,104,104,0,0,0-1.91,37.78c1.77,12.64,6.5,24.23,13.13,35.08a72.52,72.52,0,0,0,20.1,20.9c17.35,12.33,39,16.91,60,15.81,3.65-.19,7.27-.55,10.89-1L189.69,271c-.35.62-.73,1.21-1.12,1.8s-.82,1.23-1.24,1.84q-.42.6-.87,1.2c-.14.19-1.12,1.47-.62.84A69.54,69.54,0,0,1,173.69,289c-12.83,9.87-30,13.41-45.07,6.5A108.05,108.05,0,0,1,86.86,261a50.86,50.86,0,0,1-8.32-17,48.38,48.38,0,0,0-3.09-9.33,45.82,45.82,0,0,0-6-8.86,62.2,62.2,0,0,0-18.37-15.53c-10.69-5.72-22.68-6.4-33.71-1.14-3.31,1.58-1.55,6.64,1.8,6.66h.29c1,.09-1-.25.13,0a28.17,28.17,0,0,1,3.25,1c.77.29-.54-.24,0,0l.48.22,1.16.58a28.45,28.45,0,0,1,2.7,1.63,34.77,34.77,0,0,1,5.6,4.89c6.78,7.15,10.91,15.86,14.41,24.84,3.93,10.09,8.1,20.09,12.6,29.94,4.92,10.76,10.08,21.8,17.08,31.41,10.34,14.18,26.33,24.5,43,29.47a87.27,87.27,0,0,0,24.72,3.59,28,28,0,0,0,6.22-.62,98.91,98.91,0,0,0,18.86-6.34c22.14-9.78,39.89-27.55,48-50.54a92.3,92.3,0,0,0,3-10.81h-6.89c.11.43.2.87.29,1.31s.17,1,.25,1.47c.16,1,0-.23.06.4.05.42.09.84.14,1.26a66.51,66.51,0,0,1-.15,13.82c-1.26,11.16-5.16,23.21-12,32q-9.18,11.82-18.08,23.79c-3.47,4.68-6.84,9.42-10.16,14.2-3.67,5.3-7.68,10.58-10.37,16.48-6.79,14.93-5.06,31.89,1.1,46.74,1.49,3.59,6.81,3.32,7-.95,0-.25,0-.5.06-.74.07-.75.05-.34,0,0,.07-.42.13-.85.21-1.27a49.21,49.21,0,0,1,2-7.47,65.2,65.2,0,0,1,13.81-22.45,74.21,74.21,0,0,1,14.84-12.73c3.51-2.18,7.2-4,10.65-6.33a104.11,104.11,0,0,0,26.81-25.26c8.9-12.29,10.66-27.56,7.32-42.11l-6,3.48a119,119,0,0,1,13.54,19.81c2.94,5.25,5.76,10.68,7.4,16.5A50.38,50.38,0,0,1,264,363.46c-.63,11.36-1.6,22.46-.25,33.81a136.76,136.76,0,0,0,3.6,19c.9,3.4,1.69,7.22,3.33,10.34a42.45,42.45,0,0,0,4.82,7c8.11,9.92,20.36,15.45,33,16.33,4.1.29,4.73-5.93.95-7-14.89-4.27-17.51-24-17.39-37.13a91.68,91.68,0,0,1,2.56-20.54c1-4,2.33-7.84,3.56-11.76,4.94-15.74,6.8-33.59,2.91-49.73a50.31,50.31,0,0,0-22.1-31.26l-1.8,6.65c5-.17,10.34,1.35,14.92,3.26a51.31,51.31,0,0,1,25.17,23.69c1.75,3.51,2.56,7.79,3.18,11.94a124.67,124.67,0,0,0,13.7,41.48,59.85,59.85,0,0,0,18,20.54c14,9.93,32.44,11.05,48.26,5,3-1.15,3.76-6.07,0-6.89-12.45-2.7-24.74-9.43-32.75-19.51-9.72-12.24-10.8-28.08-9.65-43.06,1.06-13.88-.85-27.51-4-41a38.33,38.33,0,0,0-6.25-13.94c-7.44-10.1-19.13-14.12-31.42-12.63l3.08,5.38a13.26,13.26,0,0,1,.8-1.37c.28-.44.59-.86.89-1.28.51-.73-.5.56.21-.28.31-.36.62-.73.94-1.09a29.2,29.2,0,0,1,10.69-7.73c6-2.74,13.6-3.59,20.49-3.21a59.45,59.45,0,0,1,6.93.76c1.19.2,2.38.42,3.56.67l2.21.5c.81.2,2.24.88,3,.78.54-.06-.29-.12-.35-.15.49.26,1,.46,1.53.71,9.83,4.81,18.45,12.81,22.64,23.34a40.91,40.91,0,0,1,2.8,12.34c.32,4.93.38,9.71,1.6,14.54a48.06,48.06,0,0,0,14.45,24,46.33,46.33,0,0,0,31,11.77,48.84,48.84,0,0,0,32.48-13.06c3.4-3.11-1.66-8.15-5.05-5.05-15.08,13.8-38.85,14.8-54.08.66a41.66,41.66,0,0,1-12.7-24c-.74-4.66-.42-9.4-1.16-14.07a46.4,46.4,0,0,0-4-12.54c-5-10.47-14.17-19.12-24.56-24.16-5.46-2.64-11.87-3.42-17.84-4-7.86-.73-16.1-.12-23.52,2.71s-15.57,8.17-19.2,15.6c-1,2.14.16,5.73,3.09,5.38,5.41-.66,11.12-.51,16.13,1.75a24.42,24.42,0,0,1,9.12,7.34,34.18,34.18,0,0,1,2.77,4.46c.34.67.66,1.36,1,2,.2.44-.13-.37.17.42.14.36.28.71.4,1.07a37.55,37.55,0,0,1,1.22,4.26c3.2,13.59,4.71,26.95,3.62,40.88-1.19,15.23.89,31.61,10.22,44.16,9,12,23,20.35,37.57,23.51v-6.89c-13.65,5.22-29,4.81-41.42-3.37-7.76-5.1-12.79-11.51-17-19.4-6.75-12.53-10.74-26.23-12.85-40.24-1.4-9.29-5.54-17.14-11.65-24.22a55.7,55.7,0,0,0-19.87-14.71c-5.67-2.47-12.22-4.44-18.49-4.22a3.6,3.6,0,0,0-1.8,6.65c9.6,6,15.86,15.38,18.63,26.29,2.39,9.41,2.32,20.06,1.11,29.12a104,104,0,0,1-3.95,17.88c-3.64,11.36-6.27,22.7-6.27,34.69,0,16.44,4.57,38,22.64,43.17l.95-7a39.92,39.92,0,0,1-27-13.11,30.47,30.47,0,0,1-4.53-6.45c-1.5-3.06-2.21-6.76-3.05-10a122.05,122.05,0,0,1-3.25-17.79c-1.13-11,0-21.84.51-32.86a55.29,55.29,0,0,0-1.53-16.71,78.29,78.29,0,0,0-7.23-17,130.89,130.89,0,0,0-15.73-23.19c-2.47-2.86-6.72.23-6,3.47,2.84,12.38,1.37,25.12-6,35.7-6.9,9.95-16.42,18.19-26.55,24.69-3.38,2.18-7.07,3.88-10.34,6.19a93.66,93.66,0,0,0-14.93,12.9,74,74,0,0,0-15.06,24,43.4,43.4,0,0,0-3.09,13l7-.95c-5.28-12.73-7.63-27.44-2.14-40.51,2.46-5.86,6.44-11.06,10-16.24q5.11-7.42,10.46-14.69,1.32-1.79,2.65-3.54c.18-.24.37-.47.55-.72s-.59.76-.46.59c.73-.94,1.44-1.91,2.16-2.87q6.21-8.28,12.56-16.46c7.35-9.45,11.7-21.47,13.46-33.28,1.15-7.66,1.66-16.16-.36-23.76-.88-3.3-6.13-3.5-6.89,0a78.29,78.29,0,0,1-17.73,35.7A85.11,85.11,0,0,1,170.73,328,91.78,91.78,0,0,1,151,335.34a28.72,28.72,0,0,1-4.19.91c-5.41.49-13.07-.54-19-1.83-17.11-3.72-33-12.95-43.84-26.54a100.84,100.84,0,0,1-8.15-12.83c-3-5.46-5.78-11.06-8.42-16.71-4.54-9.73-8.72-19.64-12.65-29.64-3.44-8.75-7-17.24-12.82-24.81-5.07-6.62-12.15-13.57-20.76-15a14,14,0,0,0-2-.23L21,215.31c16.53-7.89,33.05,2.9,43.42,15.55a36.33,36.33,0,0,1,5.1,7.83c1.2,2.61,1.77,5.91,2.61,8.83A56.25,56.25,0,0,0,81,265.07c11.4,15.56,26.32,28.43,43.89,36.52,16.17,7.44,34.72,5.48,49.44-4.37a69,69,0,0,0,21.49-22.6c1.19-2.11-.26-5.75-3.08-5.37-21.8,2.91-44.54.61-63.48-11.25a69.91,69.91,0,0,1-15.15-12.64c-.84-.93-1.66-1.88-2.45-2.85-.25-.3-1.16-1.48-.52-.64-.29-.39-.59-.77-.87-1.16-.75-1-1.47-2.09-2.13-3.18-5.57-9.09-9.79-18.5-11.86-29a92.36,92.36,0,0,1,.74-37.1,120,120,0,0,1,8.86-26.2c1.09-2.31,2.26-4.6,3.54-6.82a44.23,44.23,0,0,0,3.43-8.43c3.29-10,5.31-21.73,1.71-32-1.61-4.59-4.45-9.54-8.71-12.19-.19-.12-.37-.26-.56-.37L102.57,92a7.54,7.54,0,0,1,.79.3c.24.11.5.2.75.3l-.3-.12.62.26c1.77.8,3.51,1.66,5.21,2.61a56.25,56.25,0,0,1,13.3,10.1,38.43,38.43,0,0,1,9.91,17.73c2.05,8.68.36,17-2.81,25.08a134.63,134.63,0,0,0-7.38,26.64A140.44,140.44,0,0,0,120.89,191c-.23,4.46-.4,8.74.84,13.07A48,48,0,0,0,136,227.09a57.15,57.15,0,0,0,22.2,11.43c8.61,2.42,17.64,3.58,26.53,4.53a136.83,136.83,0,0,0,30.81-.3c1.43-.17,3.19-1,3.45-2.62,2.22-14.21,1.63-29.49-4.09-42.85-2.06-4.8-4.71-9.32-6.63-14.18a131.94,131.94,0,0,1-5.78-18.62,114.64,114.64,0,0,1-2.94-22.66c-.19-6.87.08-13.87,1.86-20.54a50.88,50.88,0,0,1,2.09-6c.33-.81-.1.22.16-.39l.54-1.2q.64-1.44,1.35-2.85c1-2.09,2.2-4.14,3.43-6.14,6.53-10.52,15.93-19.34,27.43-24.15,14.1-5.89,29.88-5.31,44.12-.24,12.85,4.57,25,13,32.76,24.32s10.8,24.92,11.24,38.48c.43,13.36-1.41,26.64-3.72,39.76-2.6,14.74-6.17,29.12-11.84,43-1,2.44-2.06,4.84-3.17,7.23a3.59,3.59,0,0,0,5.61,4.33,90.53,90.53,0,0,1,39.92-20.26c13.74-3.09,29.68-4.31,42.82,1.68,17.13,7.82,23.41,27.3,27.25,44.28,2.17,9.6,4.07,19.21,5.33,29,.78,6,1.46,12,3.82,17.64a49.93,49.93,0,0,0,12.66,17.85,34.67,34.67,0,0,0,30.42,7.84C478.18,334.58,476.27,327.69,471.77,328.59Z"/></svg>