<svg id="b91011d5-13ac-4cac-939a-c29c3876c8e6" data-name="Calque 1" xmlns="http://www.w3.org/2000/svg" xmlns:xlink="http://www.w3.org/1999/xlink" viewBox="0 0 500 500"><defs><style>.b616b282-db17-4aea-9bd8-94ed427f18c9{fill:url(#b6d22c86-1da1-4972-90ed-a1b859d58814);}.aeb6d710-49f0-4f23-946b-9651891a0b41{fill:#fff;stroke:#fff;stroke-miterlimit:10;stroke-width:2.38px;}</style><linearGradient id="b6d22c86-1da1-4972-90ed-a1b859d58814" x1="79.35" y1="-45.86" x2="420.86" y2="545.65" gradientUnits="userSpaceOnUse"><stop offset="0" stop-color="#29abe2"/><stop offset="0.35" stop-color="#1791d1"/><stop offset="0.75" stop-color="#067ac2"/><stop offset="1" stop-color="#0071bc"/></linearGradient></defs><rect class="b616b282-db17-4aea-9bd8-94ed427f18c9" x="0.11" y="-0.11" width="500" height="500"/><path class="aeb6d710-49f0-4f23-946b-9651891a0b41" d="M399,186.73a7.67,7.67,0,1,0-.26,14.61,8,8,0,0,0,1.19-.47,7.67,7.67,0,0,0-.93-14.14Zm-.59,6.34c0,.09.06.18.09.26a1.72,1.72,0,0,0-.1-.26,1.86,1.86,0,0,0-.44-.59A2.05,2.05,0,0,1,398.45,193.07Zm-2.64-1a.94.94,0,0,0-.15.06,1.92,1.92,0,0,0-.38.25,1.56,1.56,0,0,1,.38-.25A.94.94,0,0,1,395.81,192.07Zm-1.09,2.84a2.07,2.07,0,0,1-.16-1.36,2.07,2.07,0,0,0,.16,1.36,2,2,0,0,0,.82.87A2,2,0,0,1,394.72,194.91Zm2.1,1.14a2.12,2.12,0,0,0,.68-.2,1.9,1.9,0,0,0,.49-.35,1.9,1.9,0,0,1-.49.35A2.12,2.12,0,0,1,396.82,196.05Z"/><path class="aeb6d710-49f0-4f23-946b-9651891a0b41" d="M427.72,200.38c-6.8-22.62-21-40-42.12-48-12.67-4.77-21.08-6.12-36.65-6.3a.62.62,0,0,1-.6-.47,18.16,18.16,0,0,0-1.49-3.61H342.5a15.57,15.57,0,0,1,2.17,4.28,14.44,14.44,0,0,1,.52,3.44.78.78,0,0,0,.84.76c1-.06,2-.11,2.91-.14a91,91,0,0,1,12.53.16,70.6,70.6,0,0,0-13.12,12.14A60.72,60.72,0,0,0,333.93,201c0,1.73,0,3.5.12,5.26.79,12.31,4.6,23.36,10.73,31.13a52.32,52.32,0,0,0,6.46,7c18.09,16,41.07,22.31,58,24.75l-.45.5h5.57a78.92,78.92,0,0,0,10.27-16.41C432.15,236.94,433.23,218.65,427.72,200.38ZM420,253.19c-6.66-3.07-13.24-6.49-19.62-9.81-11.55-6-24-14.16-28.74-28.94a50.8,50.8,0,0,1-1.24-24.05c1.94-11.12,6.9-22.39,14.73-33.52,18.9,8.38,32.2,23.83,38.5,44.74.11.4.23.8.34,1.2a.85.85,0,0,1-.48,1l-9.57,4.34a2.21,2.21,0,0,0,.9,4.22h.12l10.28-.52a.87.87,0,0,1,.91.74A66.68,66.68,0,0,1,420,253.19Z"/><path class="aeb6d710-49f0-4f23-946b-9651891a0b41" d="M408.77,269.66c-7.88,8.88-18.23,16.84-30.94,23.59a166.42,166.42,0,0,1-20.07,8.91,155.42,155.42,0,0,0-.11-28.6c-.55,13-1.26,52.24-16.72,55.52-4.64.87-8.34-1.73-13-3.3a23,23,0,0,0-5.12-1.2l-.71-.05-1,0h-2q-.67,0-1.35.06l-.29,0-.71.06-1.24.11-1.24.15-.83.12-1.42.2-1.4.23-1.3.23c-.5.09-1,.17-1.49.27-2.43.38-5.22,1.15-7.45.77a12.92,12.92,0,0,1-.11-4,119.76,119.76,0,0,1,2.44-14.14c2.07-9.48,4.5-18.85,6.85-28.27-2.36,6-4.45,12.17-6.44,18.34-1,3.32-3.06,9.77-4.53,15.94-8.44,1-17.39,1.88-26.58,2.62A63.43,63.43,0,0,0,273.18,304c.09-5.55.17-10.79,2-15.83a37.47,37.47,0,0,1,17.95-20.13c1-.52,2.05-1,3.16-1.55C301.47,264,306.84,261.46,309,256c1.9-4.71,1.44-10.39-1.35-16.43-4.15-9-12.83-17.42-20.63-20-4.72-1.58-9.65-2-14.42-2.47-4.61-.42-9.36-.86-13.77-2.32-6.53-2.16-22.12-8.77-26-23.46a7.14,7.14,0,0,1-.13-2,13.33,13.33,0,0,1,1.7-5.87l0,0,.49-.88c.2-.35.4-.7.61-1.05.51-.86,1-1.74,1.61-2.64a.21.21,0,0,1,0-.06c.16-.26.33-.52.5-.78s.46-.71.71-1.07.41-.61.62-.92.29-.41.44-.62l.47-.67c.3-.41.6-.82.92-1.24l.52-.69c.45-.59.91-1.18,1.39-1.76l.05-.07c.24-.29.47-.58.72-.87s.47-.55.71-.83.65-.74,1-1.12l.89-1,.52-.56.14-.14c.19-.21.39-.4.59-.6l.74-.74.15-.15.6-.58.78-.72c.19-.19.39-.37.59-.55s.31-.27.47-.42l.61-.53.29-.25.64-.53.34-.27.79-.64L254,160l.63-.48.76-.55,1-.74c.7-.47,1.41-.93,2.14-1.38l.68-.41c.32-.2.64-.39,1-.57l1-.57.1,0,.07,0c.4-.22.79-.42,1.19-.62,14.41-7.24,39.21-17.88,50.24-19.78,5.5-.94,21.11-1.2,26.65,3.77a20.33,20.33,0,0,1,3,3.42h4.36a23.58,23.58,0,0,0-4.84-6.21c-6.41-5.76-24-4.95-30.35-3.86-12.88,2.21-40.21,14-50.71,19.31a58.3,58.3,0,0,0-9,5.61c-11.1,8.34-18.22,19.48-22.27,27.45a8.81,8.81,0,0,1-3.54,3.69q-8.44,4.74-17,9.82-6.89,4.08-13.36,8.09a4.76,4.76,0,0,1-3.31.68,86.26,86.26,0,0,0-9.06-1c-2.24-.14-4.5-.19-6.74-.17-2.94.15-6.12.18-8.95,1.33-3.26,1.61-6.4,3.41-9.48,5.31-1.23.76-2.45,1.53-3.67,2.3a75.78,75.78,0,0,0-10.79,8.07,8,8,0,0,0-1.43,1.84c-1.56,3.87.2,12,1.71,17.47a.22.22,0,0,1-.08.24A160.82,160.82,0,0,0,129,255.74a.67.67,0,0,1-.9.07c-10.18-8-21.88-16.27-33.29-22.28-13.05-6.88-25.71-10.79-35.22-7.92-6.8,2-11,5.14-12.79,9.47-3.46,8.3,2.54,19.6,10.14,33.9,5.87,11,12.52,23.54,16.85,37.93s5.69,28.49,6.89,40.92c1.55,16.13,2.78,28.87,10.25,33.88,3.89,2.61,9.09,2.88,15.89.84,11.42-3.44,21.21-17.49,29.08-34.07a254.56,254.56,0,0,0,11.21-28.42,1.26,1.26,0,0,1,1.49-.82,150.08,150.08,0,0,0,15.33,2.57c6,.73,12.55,1.27,19.55,1.64,34.25,1.83,78.75-.32,114.28-4.44-.69,3.77-.93,7.08-.27,9,1.51,3.65,8.08,1.7,11,1.41,1.68-.26,3.35-.54,5-.77a38.86,38.86,0,0,1,8.95-.39c4.79.55,8.87,3.36,13.67,4.34,13.22,2.12,18.89-10.87,21.07-25.67A172.16,172.16,0,0,0,379.84,297c14.47-7.68,26-16.84,34.5-27.36ZM131.1,348.48c-8.35,17-17.1,27.42-25.57,30-5.49,1.66-9.5,1.56-12.27-.29-5.79-3.89-6.93-15.74-8.38-30.73-1.22-12.64-2.6-27-7-41.75S66.63,278.18,60.67,267c-7.07-13.3-12.65-23.81-10-30.25,1.28-3.07,4.57-5.37,10.07-7,7.79-2.34,19.43.71,34,8.69q3.34,1.83,6.88,4a2.21,2.21,0,0,1,.76.79c25.26,45.45,30.88,88.79,31.86,98.47C133.21,344,132.15,346.32,131.1,348.48Zm13.42-120.92a5,5,0,0,1,.55-2,13.74,13.74,0,0,1,2-1.73c3-2.27,6.34-4.34,9.56-6.38,2.42-1.5,4.85-3,7.3-4.49,1.78-1.07,3.57-2.13,5.38-3.14a28.07,28.07,0,0,1,7.59-1.29q3.28-.21,6.58-.21,3.51,0,7,.25a.31.31,0,0,1,.14.57c-1.22.77-2.43,1.53-3.61,2.29s-2.37,1.52-3.53,2.28h0L180,216l-.43.29-2.12,1.39-.11.08a.41.41,0,0,0-.11.07l-.1.07-.51.34-1.67,1.11-1.63,1.1-2.77,1.88-2,1.4c-1.57,1.08-3.11,2.17-4.62,3.23-7.09,5-13.47,9.82-19,14.33a.05.05,0,0,1-.09,0c-.18-2.7-.34-5.39-.42-8.05A41.77,41.77,0,0,1,144.52,227.56Zm95.39,91.58c-19.91.81-39.55.87-56.48,0-7.05-.38-13.62-.91-19.55-1.63-2.13-.27-4.17-.54-6.12-.85a82.43,82.43,0,0,0-1.14-20.24,98.57,98.57,0,0,0-18.67-43,.38.38,0,0,1,0-.52,280.9,280.9,0,0,1,25.89-20.57c6.11-4.38,12.69-8.87,19.55-13.37q6.69-4.38,13.69-8.74a30.74,30.74,0,0,1,18.35,6.51c6.5,5.06,9.87,12.48,13,20.28a187.84,187.84,0,0,1,6,18.48c.6,2.09,1.22,4.24,1.86,6.36,2.49,8.28,5,17.19,6.13,26.31C244,299.79,243.15,310.22,239.91,319.14Z"/></svg>