<svg id="a802aca4-a18b-4126-8b76-3811626afbf4" data-name="Calque 1" xmlns="http://www.w3.org/2000/svg" xmlns:xlink="http://www.w3.org/1999/xlink" viewBox="0 0 500 500"><defs><style>.be83d87c-c32d-4f70-9be8-a65736c0c07b{fill:url(#a81224da-b763-4d16-9fde-bf2980d96a88);}.aad2ea66-0abd-4ca4-bc33-b0ea7c27b2f6{fill:#fff;}</style><linearGradient id="a81224da-b763-4d16-9fde-bf2980d96a88" x1="79.35" y1="-45.86" x2="420.86" y2="545.65" gradientUnits="userSpaceOnUse"><stop offset="0" stop-color="#29abe2"/><stop offset="0.35" stop-color="#1791d1"/><stop offset="0.75" stop-color="#067ac2"/><stop offset="1" stop-color="#0071bc"/></linearGradient></defs><rect class="be83d87c-c32d-4f70-9be8-a65736c0c07b" x="0.11" y="-0.11" width="500" height="500"/><path class="aad2ea66-0abd-4ca4-bc33-b0ea7c27b2f6" d="M30.74,81.46c.19-.38.13-.8.11-.3,0-.28.63-.24,0-.07-4.14,1.15-3.08-1.61-2.49.37a2.92,2.92,0,0,0,.23.47c.55,1.07,1.12,2.13,1.73,3.17a93,93,0,0,0,9.12,12.84,89.55,89.55,0,0,0,16.61,15.34c7,5,16,11.17,25,8.31a18.83,18.83,0,0,0,8.35-5,69,69,0,0,0,8.72-13.06,81.22,81.22,0,0,0,5.4-13c.45-1.44.81-2.89,1.23-4.33.08-.29.18-.57.26-.85a4.76,4.76,0,0,1,.19-.53c-.35.9,0,0,.11-.17.22-.43.12-.5.17-.32l-.13.19c-1,.94-2.32.93-3.88,0,0-.33,0-.08.13.22s.38.83.54,1.25c.1.25.18.51.26.77.33,1,.6,2.05.87,3.08.47,1.88.88,3.79,1.22,5.71a65.85,65.85,0,0,1,.91,7.22c1.3,16.45-2.55,33.11-13.93,45.51a4,4,0,0,0-1,3.83,370.45,370.45,0,0,0,18.74,47.37,159.74,159.74,0,0,0,8.15,15.07c2.48,4,5.26,8.48,8.86,11.53,1.08.92-.28-.36.27.08a10.5,10.5,0,0,1,1.1,1.42c.76.94,1.56,1.84,2.39,2.71A64.86,64.86,0,0,0,140.2,239a55.22,55.22,0,0,0,42.35,8.61c16.32-3.25,32-10.26,46.88-17.55a470.79,470.79,0,0,0,41.74-23.48c7.13-4.46,14.12-8.76,21.62-12.59a223.34,223.34,0,0,1,38.76-15.79c3.75-1.09,7.54-2.06,11.37-2.84,3.67-.75,7.42-1,11.07-1.78,6.85-1.4,13.69-2.74,20.64-3.61a305.4,305.4,0,0,1,36.91-2.13c11.26-.06,22.71.3,33.71,2.37a60.8,60.8,0,0,1,14.43,4.32c.94.46,1.87,1,2.76,1.51l1.25.83.6.44c-.53-.41.19.16.32.28a23.91,23.91,0,0,1,1.94,2c.4.46-.15-.32.39.54.29.47.56.93.83,1.42.1.19.19.39.28.59-.06-.14-.26-.72,0,0,.08.26.17.52.25.79s.14.58.22.88.06.32.09.48c.15.77,0-.88,0,0s.05,1.61,0,2.43c0,.23,0,.46-.06.68,0-.16.13-.76,0,0s-.26,1.31-.43,2a30.75,30.75,0,0,1-3.46,7.8c-1,1.65-2.06,3.25-3.19,4.8a9.43,9.43,0,0,1-1.79,2.18,19.46,19.46,0,0,1-3.31,1.5,337.63,337.63,0,0,0-48.48,27.23q-5.91,4-11.64,8.23c-2,1.49-4.23,2.83-5.64,4.9-.31.45-.61.88-.93,1.31.55-.74,0,0-.25.28s-.72.82-1.09,1.21a18.48,18.48,0,0,1-5,3.9,17.15,17.15,0,0,1-12.93,1.51,26.69,26.69,0,0,0-13.66-.19c-6.58,1.62-11.21,5.68-16.1,10.08-3.23,2.91-6.52,5.74-9.78,8.61-.93.82-2,1.59-2.83,2.49-1.47,1.53-1.17,3.43-1.06,5.37l.43,7.64a4,4,0,0,0,5,3.8l12-2.67,6-1.33c2-.45,4.63-.59,5.79-2.57,0,0,.69-1.59.26-.63l.24-.54c.24-.49.47-1,.74-1.44a17.6,17.6,0,0,1,2.1-3.1,18.41,18.41,0,0,1,7.94-5.5,18,18,0,0,1,6.22-1.13c.18,0,.64.06-.09,0,.24,0,.49.1.72.15.79.17,1.6.27,2.39.37a26.79,26.79,0,0,0,4.65.23,28.17,28.17,0,0,0,17.53-7.29,31.86,31.86,0,0,0,7.3-9.66l-1.42,1.41c11.73-8.19,24.26-14.48,37.3-20.27,8.57-3.81,16.8-8.28,26.05-10.29l-3.84-6.58A279.44,279.44,0,0,1,352.5,304.17q-8,3.19-16.07,5.92c-2.26.75-6,1.23-7.71,2.93s-2.79,5.47-3.7,7.83a73.46,73.46,0,0,0-4.22,17c-.56,4.27-.86,8.56-1.61,12.81a116.71,116.71,0,0,1-3.87,15.88c-1.09,3.37-2.92,8.24-4.72,10.33-.22.26-.46.49-.69.73-.71.74.46-.6-.12.12-.36.44-.83,0,0,0-.85,0,1-.1.1,0,.91-.06.61.45.49,0,.07.27-.67-.74-.69-.77a10.36,10.36,0,0,1-.73-1.13,4.66,4.66,0,0,0-.25-.5c-.45-.57.31,1,0,.06-.35-1.13-.75-2.23-1-3.38-1.78-7.62-.89-16.22.17-24.29l2.42-18.4c.43-3.28-4.69-5.35-6.73-2.78-4.76,6-9.59,11.91-14.58,17.7a107.66,107.66,0,0,0-7.9,9.79,51,51,0,0,0-7.31,17.44c-.51,2.3-.63,4.74-1.3,7-.71,2.41-1.61,4.78-2.44,7.15-1.44,4.12-2.94,8.22-4.53,12.29a105.15,105.15,0,0,1-7.29,15.67c-.48.81-1,1.59-1.54,2.37s.39-.37-.33.42l-.82.9c-.19.2-.42.37-.63.56.89-.8.37-.25,0-.09-.86.43.84-.25.15-.06-.4.11-.47-.07.57,0-.19,0-.65,0,.13.06a1.27,1.27,0,0,1,.5.12c.73.34.3.43,0-.09.53,1,.06,0-.09-.27s-.17-.35-.26-.53c.41.83,0-.09-.1-.3a41.35,41.35,0,0,1-1.66-8c-.49-4.28-.56-8.56-.85-12.85-.21-3.07-.47-6.13-.5-9.21a98.06,98.06,0,0,1,16.25-55.2c1.55-2.35-.46-6.22-3.41-5.93-13.12,1.3-26.6.79-39.71-.39-26-2.34-52.51-8.74-74.89-22.59-4.79-3-9-6.5-13.55-9.82-.14-.11-.29-.2-.44-.3-.63-.48-.88-.8-.11-.08-2.34-2.22-4.82-4.21-7-6.59-1.77-1.9-3.46-3.89-5.08-5.93l-.72-.92c.54.69,0,0-.2-.27-.51-.67-1-1.35-1.5-2q-1.56-2.15-3-4.37a170.5,170.5,0,0,1-12.87-23.35C94.83,223.21,88.06,195,83.77,167.16c-.69-4.46-1.3-8.93-1.86-13.41-.23-1.91-1.62-4.24-3.94-3.95a32.42,32.42,0,0,1-7.75-.16c-1-.13.88.14-.19,0l-1-.16c-.57-.1-1.13-.21-1.69-.34a40.37,40.37,0,0,1-4.34-1.2,34.17,34.17,0,0,1-8.38-4.22,35.1,35.1,0,0,1-8-7.57,42.3,42.3,0,0,1-3.63-5.64c-.53-1-1-1.95-1.49-2.94-.29-.62-.61-1.25-.84-1.89.59,1.61.45,1.1.32.74-2-5.1-3.83-10.21-5.37-15.47-3-10.14-5.29-20.83-4.39-31.45.42-5.06-7.46-5-7.89,0-.86,10.2,1.16,20.65,3.81,30.46a156.09,156.09,0,0,0,6.16,18.38c6,14.55,17.81,25.94,33.6,28.74a37.69,37.69,0,0,0,11,.64L74,153.75c3.8,30.74,10.07,61.54,22,90.26,6.55,15.84,14.69,31.24,25.88,44.31a73.32,73.32,0,0,0,8.36,8.45c.93.79,1.9,1.53,2.88,2.26.15.12.32.22.48.33s.18.16-.1-.06c.93.71,3.09,2.53,4.51,3.61,22.45,17.08,50.51,25.24,78.13,28.86a252.46,252.46,0,0,0,32.16,2.13,132.66,132.66,0,0,0,16.68-.58c.25,0,.51,0,.76-.06l-3.4-5.93a105.39,105.39,0,0,0-17.24,53.57,199.37,199.37,0,0,0,.89,23.69c.44,5.6.66,12.89,4,17.69,2.79,4,7.4,3.93,10.81.83s5.43-7.47,7.32-11.43a235,235,0,0,0,9-22.5q1.23-3.49,2.41-7a66.25,66.25,0,0,0,1.7-7.91,46.67,46.67,0,0,1,3.48-10.7,44.37,44.37,0,0,1,4.09-6.86l.43-.57c.48-.66-.46.57.1-.13l1-1.19c.78-.94,1.57-1.87,2.37-2.8q8.43-9.81,16.48-19.92l-6.72-2.79L300,348.06c-1.13,8.63-1.84,17.47.16,26,1.36,5.86,6.47,14.83,13.64,10.46,3.86-2.35,5.86-7.21,7.47-11.21a99.53,99.53,0,0,0,4.94-17.29c1.18-5.85,1.64-11.75,2.43-17.66a66.46,66.46,0,0,1,6.3-20.59l-2.35,1.81a285.24,285.24,0,0,0,137.28-92.93c2.46-3,.21-7.46-3.83-6.59-8.33,1.81-15.69,5.58-23.39,9-9.48,4.28-19,8.34-28.06,13.54q-3.74,2.15-7.38,4.47c-1.45.93-2.89,1.89-4.32,2.86-1.26.86-2.73,1.63-3.54,3a42.68,42.68,0,0,1-3.53,5.44,21.32,21.32,0,0,1-9.45,6.56,20.45,20.45,0,0,1-7.46.93c-1.86-.1-3.65-.71-5.51-.69-10.95.1-20.34,7.24-24.4,17.17l2.75-2.75-21.42,4.76,5,3.8L334.71,278l-1.15,2.79,9.55-8.41c4.24-3.72,8.13-8.24,13.58-10.14a19.94,19.94,0,0,1,8.38-1.1s1.18.12.55,0,.42.07.43.08c.37.07.73.13,1.09.22.56.13,1.09.32,1.64.47a25.05,25.05,0,0,0,19.69-3.16,28.37,28.37,0,0,0,9.27-9.41l-1.41,1.42A338.39,338.39,0,0,1,437.44,224q9.92-5.49,20.2-10.3c1.55-.73,3.11-1.44,4.67-2.15a11.43,11.43,0,0,0,2.37-1.19,15.35,15.35,0,0,0,2.6-3.12,59.28,59.28,0,0,0,5.38-8.28c3.61-6.88,5.7-15.33,1.35-22.38S461.14,166,453.46,164c-17.81-4.75-37-4.41-55.28-3.73A263.42,263.42,0,0,0,359,164.54c-2.47.47-4.93,1.11-7.41,1.54-3.34.58-6.72.89-10.05,1.55a152.92,152.92,0,0,0-19.27,5.27A250.22,250.22,0,0,0,289,187.08a159.72,159.72,0,0,0-14.21,7.86c-21.06,13.58-43.46,26.62-66.39,36.07-9.9,4.07-20.19,7.79-30.8,9.52a6.83,6.83,0,0,0-.79.11c1.46-.39.72-.08.24,0l-1,.1c-1.75.16-3.5.26-5.25.26-10.47,0-20.39-3.93-28.67-10.21a60.43,60.43,0,0,1-7.13-6.54c-.66-.73-1.3-1.47-1.93-2.22s-.16-.15.11.15c-.3-.34-.54-.73-.85-1.07a58.79,58.79,0,0,1-6.88-8.4,129.81,129.81,0,0,1-7.07-12.26c-7.8-15.16-13.94-31.21-19.38-47.34-.34-1-.69-2-1-3.07l-1,3.83c11.5-12.51,16.73-28.94,16.49-45.78-.12-8.45-1.08-17.83-4.39-25.73-1.58-3.75-5.74-7-9.37-3.36-1.56,1.56-2.25,3.8-2.81,5.88a70.82,70.82,0,0,1-13.38,26.45,4.83,4.83,0,0,1-.56.55c.66-.63.1-.07-.12.07-.57.37-1.14.76-1.74,1.09a10.8,10.8,0,0,1-5.73,1.52c-2.11-.11-4-1.25-5.82-2.2-2.14-1.1-4.23-2.31-6.26-3.61a81.14,81.14,0,0,1-18-16A79.23,79.23,0,0,1,36.2,79.46a29.77,29.77,0,0,0-1.8-3.22c-3-4.13-8.29-3-10.47,1.24C21.62,82,28.42,86,30.74,81.46Z"/></svg>