<svg id="f28cbf66-29c0-4b98-86eb-ebd477c3dd8a" data-name="Calque 1" xmlns="http://www.w3.org/2000/svg" xmlns:xlink="http://www.w3.org/1999/xlink" viewBox="0 0 500 500"><defs><style>.e6db6091-33e2-4551-b1a4-ff1bb5b0b904{fill:url(#e6cf63f9-369f-4e1a-9097-9d996bc72fee);}.b3fb107a-0076-4d85-83de-242d48114e1c{fill:#fff;}</style><linearGradient id="e6cf63f9-369f-4e1a-9097-9d996bc72fee" x1="78.7" y1="-45.48" x2="421.51" y2="548.27" gradientUnits="userSpaceOnUse"><stop offset="0" stop-color="#29abe2"/><stop offset="0.35" stop-color="#1791d1"/><stop offset="0.75" stop-color="#067ac2"/><stop offset="1" stop-color="#0071bc"/></linearGradient></defs><rect class="e6db6091-33e2-4551-b1a4-ff1bb5b0b904" x="0.11" y="-0.11" width="500" height="503"/><path class="b3fb107a-0076-4d85-83de-242d48114e1c" d="M190.75,426.47c-10.3-9.18-16.7-23.81-17.86-37.34-.32-3.82.75-8.22-1.72-11.37-.65-.83-1.48-1.57-2.21-2.34l-10.54-11.16c-16.32-17.28-32.8-34.43-49-51.85-.74-.8.28.37.16.22-.54-.7-1-1.42-1.56-2.14-1.86-2.62-3.56-5.36-5.16-8.15a106.81,106.81,0,0,1-11.35-28.83c-7.7-33.22,5.08-65.06,28.26-89.07a193.6,193.6,0,0,1,34-27.55c5.16-3.36,7.53-7.24,10.24-12.74,11-22.41,10.37-47.48-.5-69.83l-4.11,7.16c9.54-.62,19.38,2,28.41,5.72,23.68,9.71,40.38,30,51.21,52.6a4.7,4.7,0,0,0,4.11,2.36H383.53c6.84,0,13.69,0,20.54,0,1.46,0-1.25-.4.23,0,2,.52,4,1.16,5.34,2.87,3.46,4.43-.21,10-2.35,14.09A186.19,186.19,0,0,1,397,176.47c-23.82,35.56-60.93,61-101.75,73.13a156,156,0,0,1-15.93,3.89c-1.66.31.22,0-.37.06-2.55.36-5.09.71-7.62,1.24-6.18,1.3-12.35,2.75-16.95,7.22-6.13,6-10.28,13.55-15.83,19.12-8.23,8.24-18.51,14.52-28.31,20.65l6.51,6.52a92,92,0,0,0,7.92-40.51c-.43-10.14-11.45-14.67-20.38-14.18-11.46.62-23,5.47-32.79,11.27-6.59,3.91-13.62,8.31-18.25,14.56-9.5,12.81-8.93,29.39-1.1,42.9a68.53,68.53,0,0,0,21.66,22.79c5.55,3.59,11.2,8.36,17.2,11.13,2.5,1.15,4.58.22,7.05-.36a95.7,95.7,0,0,1,12.1-2.11c11.86-1.26,25.89-1.07,35.75,6.6l2.1-7.95c-23.28,6.94-47.56,22.94-58.73,44.94a63.1,63.1,0,0,0-6.65,32.45c.35,6.1,9.88,6.14,9.52,0-2-34.18,28.21-59.2,58.39-68.21,3.09-.92,5.07-5.65,2.1-8-16.58-12.91-41.15-11.8-60.45-6.08l3.67.48c-17.28-11.18-42.72-25.34-40.21-49.64a27.1,27.1,0,0,1,3.46-10.59,17.44,17.44,0,0,1,3.54-4.9c9.85-9.81,25.69-17.81,39.59-19.6,2.87-.37,6.24-.59,9,.63,4,1.8,4.05,4,4,8a81.29,81.29,0,0,1-6.7,31.53c-1.73,4,2.06,9.3,6.51,6.51,9.66-6,19.45-12.3,27.94-20,4.84-4.38,7.94-9.73,12.06-14.71,3.9-4.71,6.62-8,11.89-9.57a95.45,95.45,0,0,1,14-2.94A110.94,110.94,0,0,0,293,260.15c41.25-11.06,79.34-35.29,105.36-69.29a181.7,181.7,0,0,0,20.48-33.57c3.85-8.26,1-18.42-7.28-22.65-5.1-2.6-10.5-2-16-2H243.2l4.11,2.36C231.87,102.72,203.76,76,167,72.25a46.48,46.48,0,0,0-7.55-.29,4.82,4.82,0,0,0-4.11,7.16c8.88,18.28,9.88,39.17,1.61,57.85-1.55,3.5-3.41,8.1-6.13,10.91-.57.59-.47,0-.23-.23-2.59,2.06-5.66,3.7-8.39,5.6q-7.49,5.24-14.55,11c-26,21.43-46.69,50.81-48,85.45-.75,20.68,5.43,41.43,16,59.12,5.46,9.19,12.64,16.22,20,24l49,51.85-1.4-3.36c-.51,18.58,6.62,39.25,20.81,51.9C188.57,437.27,195.33,430.56,190.75,426.47Z"/><path class="b3fb107a-0076-4d85-83de-242d48114e1c" d="M261.1,165c-9.93,11.82-9.63,28.34-.62,40.54,3,4.09,9.93.12,6.88-4-4.94-6.69-7.31-14.18-4.9-22.34a27.38,27.38,0,0,1,2.85-6.4c.44-.72,1.77-2.55,1.43-2.14,3.27-3.91-2.34-9.58-5.64-5.64Z"/><path class="b3fb107a-0076-4d85-83de-242d48114e1c" d="M281.73,165c-9.93,11.82-9.63,28.34-.63,40.54,3,4.09,9.94.12,6.89-4-4.94-6.69-7.31-14.18-4.9-22.34a27.38,27.38,0,0,1,2.85-6.4c.44-.72,1.77-2.55,1.42-2.14,3.28-3.91-2.33-9.58-5.63-5.64Z"/></svg>