<svg id="f7454e7a-26c3-46c9-b9e9-06bc8e8ddb53" data-name="Calque 1" xmlns="http://www.w3.org/2000/svg" xmlns:xlink="http://www.w3.org/1999/xlink" viewBox="0 0 500 500"><defs><style>.b6e6f1da-f8ea-4dea-b99a-a6547ca01b89{fill:url(#b904d2a0-ba5b-4554-a4db-7974b65a6e2f);}.a611be3b-8979-4956-9e36-9bdfb816c448,.b5e5b93a-c542-4788-84aa-2968b090f80d{fill:#fff;}.a611be3b-8979-4956-9e36-9bdfb816c448{stroke:#fff;stroke-miterlimit:10;stroke-width:3.5px;}</style><linearGradient id="b904d2a0-ba5b-4554-a4db-7974b65a6e2f" x1="79.35" y1="-45.86" x2="420.86" y2="545.65" gradientUnits="userSpaceOnUse"><stop offset="0" stop-color="#29abe2"/><stop offset="0.35" stop-color="#1791d1"/><stop offset="0.75" stop-color="#067ac2"/><stop offset="1" stop-color="#0071bc"/></linearGradient></defs><rect class="b6e6f1da-f8ea-4dea-b99a-a6547ca01b89" x="0.11" y="-0.11" width="500" height="500"/><path class="b5e5b93a-c542-4788-84aa-2968b090f80d" d="M450.33,167.5c-6.6-4.39-13.45-8.43-20.29-12.41q-26.52-15.42-54.3-28.52a693,693,0,0,0-79.19-31.91,504.41,504.41,0,0,0-93-21.65c-32.54-4.23-65.65-4.43-98,1.17q-6,1-11.85,2.34a5.2,5.2,0,0,0-3.76,4.36,5.43,5.43,0,0,0,2.5,5.23c3.39,2.53,7.06,4.71,10.67,6.89,11.93,7.19,24.29,13.69,36.75,19.91,11.61,5.79,23.34,11.31,35.16,16.65l-2.41-5.92c-1.86,4.71-2.22,10.35-2,15.34.48,13.07,5.89,25.12,13.88,35.31,6.82,8.69,15.48,15.77,24.67,21.83l-2.42-5.93a1.83,1.83,0,0,1-.08.25c.55-1.91.57-1.17.12-.52s1.16-1.16.43-.56a5.11,5.11,0,0,0-.45.48c-.6.65-.91.17.3-.18a5.12,5.12,0,0,0-.85.58,11.59,11.59,0,0,1-1,.58l-.6.29c-.82.46,1.3-.42.36-.15-1.12.33-2.19.76-3.34,1-.56.14-1.14.26-1.71.37-.38.07-2.74.39-1.35.24-1.92.21-3.83.36-5.75.42q-3.27.09-6.54-.05c-1.38-.05-2.75-.13-4.13-.23-.2,0-2.59-.29-.82,0l-.11,0c-1-.18-2.09-.42-3.13-.63q-8.5-1.65-17.07-3c-17.69-2.74-35.76-5-53.7-4.3-5.73.21-11.25,2.4-16.72,4q-8.89,2.66-17.79,5.39c-5.49,1.69-11.11,3.18-16.47,5.26-3.83,1.49-9.19,3.58-9.18,8.53,0,4.4,4.22,6.31,7.91,6.94a67.93,67.93,0,0,0,7.1.8c3.09.2,6.52.64,9.56.1a89.77,89.77,0,0,1,16.1-1.71,73.86,73.86,0,0,1,16.57,1.74l-3.67-3.66c2,6.6,3.93,13.27,5.71,19.95,1.47,5.5,2.86,11,4,16.59.53,2.52,1,5.05,1.44,7.59.09.58.16,1.17.26,1.75-.26-1.62,0,0,0,.41.11,1,.2,2,.24,3.06a46.3,46.3,0,0,1-2.2,16.62,5.26,5.26,0,0,0,2.41,5.93A36.66,36.66,0,0,0,123.7,287a61.41,61.41,0,0,0,24.76-2.44c13.56-4,25.73-11.63,36.59-20.55,4.58-3.76,8.46-8.22,13.1-11.94l.77-.61c.78-.62-.45.34.07-.05l1.54-1.15c1.23-.9,2.48-1.78,3.75-2.62q4.08-2.72,8.41-5a96.28,96.28,0,0,1,21.75-8.5l-5.93-7.71c-4.43,6.75-6.72,15.45-7.82,23.33a84.38,84.38,0,0,0,.51,26.49,64.43,64.43,0,0,0,4.15,14.62c.39.89-.44-1.16.17.42.2.51.4,1,.59,1.53.34.9.66,1.82.95,2.73a61.58,61.58,0,0,1,1.77,6.79,55.53,55.53,0,0,1-1.25,26.41,56.29,56.29,0,0,1-3.83,10.06,75.14,75.14,0,0,1-4.34,7.67c-4.34,6.69-9.39,13-14.11,19.39-6.61,9-13.18,18-19.85,27-5.31,7.12-10.72,14.31-15.16,22-1.43,2.5-2.92,5.18-3.3,8.07-.62,4.89,3.75,8.33,8.45,6.88,3.75-1.15,6.9-3.8,9.9-6.2l7.59-6.06q9.82-7.86,19.68-15.69,23.26-18.51,46.59-36.94c8.07-6.39,16.2-12.74,24.09-19.37a398.63,398.63,0,0,0,57.55-60.32q5.1-6.54,10-13.24l-9.6-4.05c-3.2,13.62-5.91,27.32-8.46,41.07-1.12,6.05-2.23,12.1-3.06,18.18-.58,4.2-1.27,8.52-.57,12.74s4.17,7.32,8.55,6.23,7.44-5.63,9.9-9c7.41-10.1,13.38-21.58,18.45-33a211.68,211.68,0,0,0,14-43.66l-1.35,2.32a239.85,239.85,0,0,0,18-15.83,307.69,307.69,0,0,0,36.83-41.68,203.26,203.26,0,0,0,18.64-30.6,5.39,5.39,0,0,0-1.88-7.18c-2.31-1.35-5.94-.68-7.19,1.88-9.81,20.12-22.95,37.66-37.9,54a311.27,311.27,0,0,1-31.19,29.79c-.84.7-1.77,1.34-2.57,2.09a6.57,6.57,0,0,0-1.78,3.64q-.74,3.54-1.6,7a195,195,0,0,1-11.42,33.6,197.72,197.72,0,0,1-15.9,29.1c-.59.89-1.2,1.78-1.83,2.65-.31.44-.63.87-.95,1.3-.06.07-.51.65-.13.16s-.37.46-.38.46c-.51.63-1,1.24-1.61,1.83-.26.27-.54.53-.81.79-.09.09-.28.19-.33.3-.17.31,1-.53.32-.24a2.58,2.58,0,0,0-.6.36c-.43.43.58-.25.71-.29-.23.07-.58.11.36,0a4,4,0,0,1,2.49.53c-.4-.23,1.22,1.1.65.5,0,0,.95,1.31.55.66-.23-.37.33,1.39.29.65a2.91,2.91,0,0,0-.15-.58c-.32-1,0,1.17.05.41.1-3.07.16-6,.56-9.1-.13,1,0,0,.06-.38l.24-1.66c.2-1.29.41-2.58.62-3.87q.71-4.17,1.47-8.32c2.28-12.54,4.69-25.05,7.49-37.48q.73-3.3,1.52-6.58a5.28,5.28,0,0,0-3-6.19c-2.58-1-5,0-6.56,2.15a409.43,409.43,0,0,1-61.47,67.65c-6.24,5.44-12.71,10.6-19.18,15.75-13.26,10.55-26.59,21-39.86,31.58q-20.16,16-40.27,32.05l-3.56,2.85-.79.64c1-.79.18-.14-.08,0-.75.52-1.49,1.05-2.27,1.53-.42.26-.87.48-1.3.74-1,.62-.05.11,0,0-.66.56-1.14-.29,0,.12,2.64.91,3.87,1.5,4.24,3.76.06.35-.37,2,.05.83.21-.55.7-1.7.13-.52,3.38-7,8-13.3,12.56-19.55,11.86-16.39,24-32.61,36-48.91a73,73,0,0,0,14.25-39.76,66.09,66.09,0,0,0-4.83-27.54,67.29,67.29,0,0,1-3.89-13.22,69.75,69.75,0,0,1-1.24-12.39,59.21,59.21,0,0,1,2.5-19.37,31.05,31.05,0,0,1,2.36-6.75c-.85,1.47-.07.2.12-.23s.36-.78.55-1.17c.29-.58.58-1.16.89-1.73s.53-1,.84-1.42c2.58-3.94-1.68-8.84-5.93-7.72a108.35,108.35,0,0,0-50.29,29.39c-4,4.13-9.15,7.58-14,10.7-2.82,1.83-5.72,3.54-8.71,5.08q-2.1,1.09-4.26,2.07c-.31.14-1.82.79-1.17.52-.71.3-1.42.58-2.14.85a71.5,71.5,0,0,1-14.31,3.84l-.76.11c1.3-.19.57-.07.28,0l-1.45.15c-1,.1-2.07.16-3.1.2a50.12,50.12,0,0,1-5.2-.06c-.84-.06-1.67-.15-2.51-.24-1.09-.1,1.35.22.08,0-.37-.06-.75-.11-1.12-.18a33.56,33.56,0,0,1-3.44-.78c-.72-.2-1.42-.43-2.12-.68-1.42-.5,1,.45.43.2l2.41,5.92c3.47-10.42,2.92-21.37.84-32-2.11-10.8-5.05-21.44-8.12-32q-1.09-3.79-2.26-7.59a5.25,5.25,0,0,0-3.66-3.66,90.8,90.8,0,0,0-31.91-1.16c-1.82.26-4.26.84-5.72.93a60.63,60.63,0,0,1-8-.32c-.94-.07-1.88-.16-2.82-.25-.31,0-1.35-.2-.13,0-.39-.06-.77-.11-1.15-.18-.53-.1-1-.23-1.56-.36l-.74-.24c.1-.24,1.35.75.38.09A4.55,4.55,0,0,1,57,210.13l-.54.72c.37-.34.23-.24-.42.29.32-.17.62-.39.94-.57a30.43,30.43,0,0,1,6-2.34c5.61-1.78,11.25-3.5,16.88-5.22q8.16-2.49,16.34-4.92c2.69-.8,5.51-1.43,8.15-2.4,1.58-.59,4.11-.43,6.14-.46a238.55,238.55,0,0,1,26.85,1.35c8.55.86,15.09,1.75,23.52,3.11q7.58,1.22,15.1,2.69a74.68,74.68,0,0,0,17.22,1.12c6.07-.23,13.09-.9,18.36-4.29,2.17-1.4,4.61-3.56,5.2-6.23a5.45,5.45,0,0,0-2.41-5.92,96.62,96.62,0,0,1-20.51-17.7c-.64-.75-1.26-1.51-1.87-2.29s.68,1-.29-.38l-.9-1.23q-1.54-2.18-2.91-4.47-1.16-1.94-2.16-4c-.32-.64-.62-1.29-.92-1.94-.08-.19-.63-1.5-.13-.27-.15-.38-.31-.76-.45-1.14a51.7,51.7,0,0,1-2.38-7.9c-.23-1.1-.41-2.2-.58-3.31.27,1.7,0-.07,0-.5-.06-.61-.11-1.21-.15-1.82a45.28,45.28,0,0,1,0-5.94c.05-.76.15-1.52.22-2.28s-.25,1.53,0,.17c.07-.37.12-.75.19-1.12a24.57,24.57,0,0,1,1.19-4.55,5.24,5.24,0,0,0-2.41-5.93c-18.51-8.37-36.86-17.14-54.73-26.8-8.35-4.52-16.65-9.18-24.58-14.41-1.1-.73-2.21-1.45-3.27-2.24l-1.25,9.59a262.9,262.9,0,0,1,47.55-6A344.38,344.38,0,0,1,192.2,82.2a414.65,414.65,0,0,1,46.47,7.47c15.35,3.31,30.53,7.38,45.52,12q21.38,6.66,42.23,14.87,4.93,1.92,9.84,3.94l4.59,1.9,1.13.47.33.14,2.69,1.14q9.11,3.9,18.11,8,29.14,13.42,57.07,29.32c8.3,4.74,16.32,9.9,24.51,14.82a3.87,3.87,0,0,1,.34.21c2.36,1.58,5.81.47,7.18-1.88A5.35,5.35,0,0,0,450.33,167.5Z"/><circle class="a611be3b-8979-4956-9e36-9bdfb816c448" cx="375.28" cy="163.32" r="9.52"/><path class="b5e5b93a-c542-4788-84aa-2968b090f80d" d="M401.32,216.9a78.42,78.42,0,0,1,8.67.3l2.07.21,1.21.15-.21,0,.69.09c1.5.22,3,.49,4.48.78,2.08.4,4.5-.59,5-2.85.46-2-.61-4.57-2.85-5a90.42,90.42,0,0,0-19.07-1.79,4.08,4.08,0,0,0,0,8.15Z"/></svg>