<svg id="f548b88f-262b-45fa-a08d-568f647ad3be" data-name="Calque 1" xmlns="http://www.w3.org/2000/svg" xmlns:xlink="http://www.w3.org/1999/xlink" viewBox="0 0 500 500"><defs><style>.a141c1f3-c768-4426-b323-51c90ef46d4d{fill:url(#b7c7d621-0606-4c8c-a270-7be31d3d556b);}.e9636839-e4db-47c0-a4f6-19559160d1cd{fill:#fff;stroke:#fff;stroke-miterlimit:10;stroke-width:4.76px;}</style><linearGradient id="b7c7d621-0606-4c8c-a270-7be31d3d556b" x1="79.35" y1="-45.86" x2="420.86" y2="545.65" gradientUnits="userSpaceOnUse"><stop offset="0" stop-color="#29abe2"/><stop offset="0.35" stop-color="#1791d1"/><stop offset="0.75" stop-color="#067ac2"/><stop offset="1" stop-color="#0071bc"/></linearGradient></defs><rect class="a141c1f3-c768-4426-b323-51c90ef46d4d" x="0.11" y="-0.11" width="500" height="500"/><path class="e9636839-e4db-47c0-a4f6-19559160d1cd" d="M454.06,229.27a84.08,84.08,0,0,0,.22-24.62h0c0-.07,0-.13,0-.2a.13.13,0,0,0,0-.06,105.2,105.2,0,0,0-4.09-17.9c-9.49-29.92-27.15-49.9-52.48-59.38-16.84-6.29-37.14-7.65-58.7-3.92a178.67,178.67,0,0,0-56.33,20.38l-2.47,1.13a.67.67,0,0,1-.6,0c-8.85-5.18-18.46-9-28.74-9.86a.7.7,0,0,0-.73.49,29.55,29.55,0,0,1-6.74,11c-8.89,9.55-20.08,17-27.77,27.81-5.18,7.12-8.85,15.25-12.93,23-3.95,7.39-8.22,15.09-15.24,19.84l-.57.38a1.1,1.1,0,0,0,0,1.79C196.9,226.45,204,229.56,212.91,231a.33.33,0,0,1,.25.5c-8.53,14.34-21.5,34.32-46,63.48a.9.9,0,0,1-1.23.16c-15.78-11.38-31.81-21.85-52.25-26.95-23.18-5.78-49.15-4.09-81.79,5.39l-2.75.79a1.09,1.09,0,0,0,0,2.11l2.78.7c35.37,8.91,57,23,64.37,41.8,8,20.48-4.36,39.71-4.48,39.9l-1.07,1.63a1,1,0,0,0,1,1.58l1.91-.34c.25-.05,25.22-4.36,43.27,10.82,12.81,10.76,19.22,28.63,19.06,53.12l0,2.24a.82.82,0,0,0,1.33.64l1.74-1.42c23.6-19.24,31.64-45.2,34.23-63.59a127.27,127.27,0,0,0,.44-32.26.71.71,0,0,1,.77-.79c3.6.36,10.66.89,18.49,1.45a.51.51,0,0,1,.45.41,59.85,59.85,0,0,0,1.79,6.49,1.49,1.49,0,0,0,1.93.95,36.13,36.13,0,0,1,10.62-2.05c8.58-.48,19.21.55,27.85.5,9.52.05,18.9-2,27.91-4.54,7-1.77,14.12-3.76,21.31-2.72l.38.05a1,1,0,0,0,1.06-.6l.1-.23a28.55,28.55,0,0,0,2-10,.18.18,0,0,1,.17-.18c26.8-1.64,52.66-7.27,74.83-16.28,24.12-9.81,43.29-23.51,55.44-39.61A78.33,78.33,0,0,0,454.06,229.27ZM435.69,262c-22.7,30.1-71.28,50.9-126.95,54.43a.35.35,0,0,1-.37-.32,41.58,41.58,0,0,0-.76-5.17c-.25-1.23-.55-2.45-.89-3.65a71.19,71.19,0,0,0-2.65-7.65.12.12,0,0,0-.23.08c2.42,9,4.12,18.77.79,27.55a1.24,1.24,0,0,1-1.32.76c-7-.81-14,.79-20.68,2.37-7.23,1.7-14.32,3.46-21.56,3.9s-14.67,0-22.17-.21c-6.41-.08-13-.16-19.21,1.55a2.12,2.12,0,0,1-2.61-1.39c-3-9.25-1.2-14.22,3-24.12.81-1.93,1.62-3.86,2.41-5.8a.24.24,0,0,0-.43-.21q-1.54,2.76-3.07,5.54a61.41,61.41,0,0,0-5.18,11.42,23.55,23.55,0,0,0-.79,3.82,19.37,19.37,0,0,0-.1,3.15.26.26,0,0,1-.28.28c-12.9-.94-20.88-2-21-2l-1.22-.15a1,1,0,0,0-1.07,1.13l.22,1.22a119.37,119.37,0,0,1,0,34.42c-2.33,16.52-9.2,39.37-28.47,57.36a.87.87,0,0,1-1.46-.6c-.87-22.67-7.69-39.51-20.34-50.12-14.07-11.81-31.5-12.7-40.44-12.22a1.22,1.22,0,0,1-1.18-1.73c3.48-7.52,8.23-22.25,2.07-38.07-7-18-25.92-31.82-56.28-41.13a1.17,1.17,0,0,1,.08-2.25c60.19-14.9,88.94,1.22,122.2,25.39l.63.45a1,1,0,0,0,1.4-.17l.5-.59C194,269,215.45,234.66,217.28,231.7a.37.37,0,0,1,.37-.18c3.8.34,8,.49,12.94.6,2.7.08,7.35.15,11.16.22a.16.16,0,0,0,0-.32c-3.79-.37-8.42-.8-11.11-1-16.8-1.4-25.62-2.31-38.61-11.89a1.14,1.14,0,0,1-.05-1.79c6.07-4.93,10.17-11.88,13.85-18.62,4.09-7.64,7.74-15.43,12.74-22.48,4.93-6.89,11.37-12.65,17.76-18.57,4.8-4.48,9.85-9.11,13.31-14.85A27.7,27.7,0,0,0,252,138a.56.56,0,0,1,.59-.38c10.86,1,21,5.1,30.5,10.46l1.55.89c1.68,1,4,2.47,6.13,3.83a.17.17,0,0,0,.28-.1.16.16,0,0,0-.07-.18l-5.47-4.09c-.39-.27-.79-.53-1.19-.79a.4.4,0,0,1,0-.66l1.09-.67.9-.49c29.9-16.45,74-28.89,110.06-15.4,24.1,9,40.95,28.18,50.08,56.95q.85,2.72,1.56,5.38a.63.63,0,0,1-.22.66l-.51.39-.88.69c-2.29,1.79-4.82,3.64-7.57,5.51a.59.59,0,0,1-.88-.29A46.36,46.36,0,0,0,432,188.43c-1.43-2-4.21-5.38-5.95-7.65a.24.24,0,0,0-.42.17c.27,2.52.73,7,.94,8.88,0,.68.14,2.53.18,3.23a88.61,88.61,0,0,1-1,15c-3.31,1.91-6.85,3.85-10.54,5.77a.42.42,0,0,1-.59-.24,31.45,31.45,0,0,0-2.05-5c-1.46-3.1-4.3-6.75-6.42-9.73a.29.29,0,0,0-.52.18c.14,3.73.51,8.44.26,11.93a73.59,73.59,0,0,1-.86,7.55.93.93,0,0,1-.5.67c-17.15,8.24-31.5,13.62-31.65,13.68a1.86,1.86,0,0,0-1.1,2.4,1.86,1.86,0,0,0,2.41,1.09c.14,0,13.48-5,29.84-12.8l1.16-.55,1.39-.66.23-.11h0c2.38-1.16,4.61-2.26,6.76-3.36l2.09-1.08c3.2-1.64,6.29-3.3,9.23-5l.07,0,.07,0,2.23-1.26.1-.06.24-.14c3.42-2,6.7-3.95,9.76-5.93L438,205l1.27-.83c2.85-1.89,5.5-3.77,7.92-5.6l1.53-1.2a.26.26,0,0,1,.41.16c.45,2.07.83,4.14,1.13,6.18.19,1.32.36,2.64.5,3.95C452.86,227.72,447.82,245.94,435.69,262Zm0-60c-1,.61-4.5,2.85-6.46,4a.17.17,0,0,1-.26-.19c.46-2,.81-4,1.08-6a62.5,62.5,0,0,0,.42-6.85c0-.95.6.28.88.72a58.92,58.92,0,0,1,4.46,7.9A.35.35,0,0,1,435.66,202.05Zm-24.13,13.7-2.37,1.2a.41.41,0,0,1-.57-.46c.26-1.14.48-2.28.66-3.43.11-.65.19-1.31.26-2a.24.24,0,0,1,.44-.1c.7,1.22,1.35,2.47,1.94,3.75A.78.78,0,0,1,411.53,215.75Z"/><path class="e9636839-e4db-47c0-a4f6-19559160d1cd" d="M356.69,146.89c-10.36,0-18.77,7.62-18.74,16.91,0,7.76,5.95,14.29,13.95,16.2a20.91,20.91,0,0,0,4.92.56c9,0,16.51-5.75,18.32-13.33a15.12,15.12,0,0,0,.41-3.58C375.52,154.37,367.06,146.85,356.69,146.89Zm.11,29.94c-8.31,0-15.08-5.83-15.11-13.05s6.71-13.13,15-13.16a17.19,17.19,0,0,1,4,.47c6.35,1.52,11,6.57,11.07,12.58C371.84,170.89,365.11,176.8,356.8,176.83Z"/></svg>